<?xml version="1.0" standalone="no"?>
<!DOCTYPE svg PUBLIC "-//W3C//DTD SVG 20010904//EN"
 "http://www.w3.org/TR/2001/REC-SVG-20010904/DTD/svg10.dtd">
<svg version="1.0" xmlns="http://www.w3.org/2000/svg"
 width="1600.000000pt" height="1600.000000pt" viewBox="0 0 1600.000000 1600.000000"
 preserveAspectRatio="xMidYMid meet">

<g transform="translate(0.000000,1600.000000) scale(0.100000,-0.100000)"
fill="#000000" stroke="none">
<path d="M4955 14900 c-409 -26 -846 -150 -1179 -336 -236 -132 -403 -259
-601 -458 -397 -398 -633 -873 -727 -1460 -20 -121 -23 -178 -22 -401 0 -219
3 -281 22 -392 48 -293 121 -521 252 -788 172 -350 411 -652 701 -886 108 -88
257 -189 277 -189 24 0 -3 25 -92 88 -512 361 -901 924 -1060 1535 -61 234
-71 329 -70 642 0 269 2 300 27 435 70 386 199 710 406 1022 494 742 1317
1158 2291 1158 382 0 713 -76 1045 -240 444 -219 806 -573 1053 -1030 30 -56
42 -71 52 -65 5 3 7 -6 5 -20 -1 -14 2 -28 6 -31 5 -3 9 113 9 260 0 171 -4
266 -10 266 -5 0 -10 6 -10 13 0 18 -177 190 -284 277 -405 327 -925 531
-1501 589 -147 15 -441 20 -590 11z"/>
<path d="M7364 13720 c0 -129 2 -182 3 -117 2 64 2 170 0 235 -1 64 -3 11 -3
-118z"/>
<path d="M3770 13280 c0 -5 19 -14 41 -20 78 -21 164 -136 214 -285 9 -27 20
-94 25 -150 13 -141 13 -4259 0 -4403 -19 -218 -130 -411 -251 -437 -89 -20 9
-25 471 -25 327 0 500 3 500 10 0 6 -7 10 -15 10 -28 0 -93 39 -130 77 -51 52
-100 144 -124 233 -20 71 -21 100 -21 592 l0 518 369 0 c523 0 683 -17 838
-89 155 -73 252 -162 419 -382 375 -497 527 -703 826 -1119 208 -289 381 -510
399 -510 6 0 8 -4 4 -9 -3 -5 -1 -12 5 -16 7 -4 10 111 10 349 0 200 -4 356
-9 356 -5 0 -11 8 -14 18 -4 14 -172 254 -375 536 -209 289 -363 489 -426 550
-177 174 -419 294 -691 341 -126 22 -144 31 -80 40 468 64 950 264 1352 562
63 46 143 113 178 148 l65 65 0 202 c0 118 -4 197 -9 189 -5 -7 -6 -22 -3 -34
3 -14 1 -18 -6 -13 -7 4 -12 1 -12 -8 0 -9 -4 -16 -10 -16 -5 0 -19 -19 -31
-41 -55 -110 -200 -291 -321 -403 -135 -126 -424 -318 -578 -383 -296 -127
-520 -190 -830 -235 -125 -18 -208 -21 -601 -25 l-456 -5 -6 909 c-4 499 -7
1268 -7 1708 0 881 -2 855 63 985 41 83 129 174 185 191 23 7 42 16 42 21 0 4
-225 8 -500 8 -313 0 -500 -4 -500 -10z"/>
<path d="M10800 11469 c186 -15 297 -29 409 -55 1041 -234 1778 -1157 1918
-2399 22 -196 22 -566 0 -763 -42 -371 -128 -688 -263 -970 -76 -160 -116
-227 -207 -352 -243 -330 -645 -597 -1120 -744 -220 -68 -359 -95 -672 -131
-149 -17 -165 -22 -165 -47 0 -18 5 -20 43 -14 23 3 132 10 242 16 411 23 738
101 1076 257 431 199 818 509 1100 883 192 254 335 643 396 1075 25 180 25
584 -1 775 -130 979 -636 1743 -1426 2154 -402 208 -910 330 -1355 324 l-80
-1 105 -8z"/>
<path d="M7364 10455 c0 -93 2 -133 3 -88 2 45 2 122 0 170 -1 48 -3 12 -3
-82z"/>
<path d="M7364 7595 c0 -176 2 -247 3 -157 2 90 2 234 0 320 -1 86 -3 13 -3
-163z"/>
<path d="M11120 2453 c-40 -21 -66 -77 -56 -119 4 -15 20 -39 36 -55 33 -34
91 -39 140 -14 37 19 50 43 50 94 0 85 -91 135 -170 94z"/>
<path d="M8932 1993 c3 -362 7 -476 17 -503 32 -84 108 -125 215 -118 36 2 68
7 72 10 3 4 3 39 -1 77 l-7 71 -38 0 c-72 0 -70 -12 -70 487 l0 443 -96 0 -95
0 3 -467z"/>
<path d="M2630 1891 l0 -511 95 0 95 0 0 215 0 215 80 0 c91 0 140 -16 165
-53 8 -14 42 -103 74 -198 l58 -174 101 -3 101 -3 -64 190 c-68 200 -96 255
-145 284 -16 10 -30 21 -30 25 0 4 20 15 44 25 56 23 121 92 135 143 14 51 14
114 -1 172 -14 58 -93 141 -153 161 -29 10 -112 16 -297 18 l-258 4 0 -510z
m466 336 c83 -44 85 -199 2 -244 -26 -14 -57 -18 -153 -18 l-120 0 -3 129 c-1
72 0 136 3 144 8 21 228 12 271 -11z"/>
<path d="M7580 2319 c-25 -4 -60 -11 -77 -14 l-33 -6 0 -74 0 -75 -60 0 -60 0
0 -75 0 -75 59 0 59 0 4 -227 c3 -192 6 -234 21 -268 26 -58 73 -102 130 -121
67 -22 186 -15 244 14 l42 22 -25 67 c-14 38 -27 69 -28 70 -1 1 -22 -5 -46
-13 -53 -18 -100 -12 -126 17 -17 19 -19 42 -22 230 l-3 209 110 0 111 0 0 75
0 75 -110 0 -110 0 0 90 c0 101 5 95 -80 79z"/>
<path d="M12350 2319 c-25 -4 -60 -11 -77 -14 l-33 -6 0 -74 0 -75 -60 0 -60
0 0 -75 0 -75 59 0 59 0 4 -227 c3 -192 6 -234 21 -268 26 -58 73 -102 130
-121 67 -22 186 -15 244 14 l42 22 -25 67 c-14 38 -27 69 -28 70 -1 1 -22 -5
-46 -13 -53 -18 -100 -12 -126 17 -17 19 -19 42 -22 230 l-3 209 110 0 111 0
0 75 0 75 -110 0 -110 0 0 90 c0 101 5 95 -80 79z"/>
<path d="M10761 2213 c-7 -26 -18 -56 -25 -66 -12 -16 -16 -16 -52 -1 -62 26
-214 16 -281 -19 -108 -56 -154 -166 -121 -295 9 -35 25 -60 65 -99 l54 -53
-46 -21 c-58 -28 -75 -52 -75 -111 0 -41 5 -54 35 -87 39 -43 42 -51 20 -51
-31 0 -96 -41 -115 -73 -59 -96 10 -219 145 -260 54 -16 337 -16 392 1 65 20
135 72 163 122 30 55 34 166 8 215 -44 83 -100 105 -292 116 -156 9 -196 21
-196 57 0 10 6 27 14 38 12 16 31 20 123 25 147 8 218 43 266 134 40 74 25
211 -27 254 -23 19 -20 25 22 54 39 25 72 78 72 115 0 16 -11 22 -52 32 -29 6
-60 14 -69 16 -13 4 -20 -7 -28 -43z m-110 -211 c26 -23 32 -38 37 -82 8 -91
-34 -143 -118 -143 -84 0 -126 52 -118 143 5 44 11 59 37 82 25 23 41 28 81
28 40 0 56 -5 81 -28z m46 -638 c63 -9 83 -81 36 -126 -38 -36 -108 -52 -198
-45 -108 8 -155 39 -155 101 0 71 37 87 180 80 58 -3 119 -7 137 -10z"/>
<path d="M3763 2146 c-92 -30 -166 -97 -210 -191 -26 -56 -28 -69 -28 -190 0
-122 2 -134 29 -193 35 -76 114 -152 183 -177 72 -25 217 -31 285 -11 67 19
132 66 169 121 l28 40 -67 42 -66 42 -30 -36 c-16 -19 -44 -42 -62 -49 -43
-18 -135 -18 -177 0 -42 17 -83 66 -97 114 -21 78 -40 72 245 72 l255 0 0 88
c0 159 -47 252 -154 307 -52 26 -70 30 -160 32 -65 2 -116 -2 -143 -11z m197
-144 c46 -23 80 -75 80 -123 l0 -39 -158 0 c-87 0 -161 3 -164 6 -11 10 13 78
39 113 45 59 133 78 203 43z"/>
<path d="M5592 2139 c-24 -12 -57 -39 -74 -60 -17 -21 -35 -36 -39 -33 -5 3
-9 27 -9 55 l0 49 -90 0 -90 0 0 -385 0 -385 95 0 95 0 0 236 c0 154 4 251 12
276 25 84 106 130 188 108 73 -20 75 -27 78 -342 l3 -278 88 0 89 0 4 243 c3
234 4 244 28 291 34 68 65 89 135 90 52 0 60 -2 86 -32 l29 -32 0 -280 0 -280
96 0 95 0 -3 313 c-3 299 -4 314 -25 353 -47 87 -113 119 -234 112 -89 -5
-142 -32 -182 -93 -12 -19 -26 -35 -32 -35 -5 1 -22 20 -36 44 -37 61 -93 86
-190 86 -55 0 -85 -5 -117 -21z"/>
<path d="M6777 2141 c-63 -21 -164 -83 -173 -105 -5 -13 62 -126 73 -126 3 0
19 12 37 27 54 45 125 73 189 73 87 0 117 -20 117 -77 0 -47 -31 -70 -119 -88
-257 -54 -321 -105 -321 -253 0 -103 59 -186 151 -212 45 -13 125 -13 174 1
38 11 105 67 118 99 5 13 9 12 19 -4 7 -11 27 -36 45 -55 31 -36 32 -36 117
-36 47 0 90 5 96 11 6 6 8 33 4 72 -7 62 -7 62 -39 62 -18 0 -37 6 -43 13 -6
7 -12 102 -14 232 -3 201 -5 223 -25 260 -25 47 -54 75 -103 101 -53 28 -226
30 -303 5z m251 -453 c-6 -85 -26 -131 -71 -158 -38 -24 -106 -26 -147 -5 -44
23 -59 81 -34 132 16 33 27 40 74 54 30 9 78 24 105 32 81 24 78 26 73 -55z"/>
<path d="M8264 2151 c-103 -26 -196 -109 -235 -209 -33 -83 -33 -271 -1 -353
32 -80 90 -142 170 -181 63 -31 72 -33 177 -33 100 0 116 3 172 29 75 34 134
95 171 174 25 53 27 67 27 187 0 122 -2 134 -29 192 -33 73 -104 144 -174 176
-36 16 -70 22 -147 23 -55 2 -114 -1 -131 -5z m173 -156 c94 -19 145 -169 112
-325 -20 -93 -80 -140 -177 -140 -76 0 -118 26 -152 95 -21 42 -25 64 -25 140
0 76 4 98 25 139 14 28 37 59 52 69 27 20 91 37 118 31 8 -1 29 -5 47 -9z"/>
<path d="M9583 2141 c-28 -9 -70 -30 -92 -44 -145 -96 -193 -356 -101 -544 56
-112 152 -172 296 -181 254 -15 405 132 406 396 0 196 -87 330 -245 377 -69
21 -199 19 -264 -4z m235 -163 c18 -11 43 -39 55 -62 19 -35 22 -57 22 -151 0
-97 -3 -115 -24 -151 -35 -61 -87 -87 -165 -82 -73 4 -114 29 -142 85 -28 57
-27 254 1 302 50 85 165 112 253 59z"/>
<path d="M11612 2142 c-60 -22 -118 -71 -138 -119 -8 -18 -14 -61 -14 -95 0
-123 58 -176 242 -226 137 -37 158 -50 158 -101 0 -59 -26 -76 -114 -76 -79 0
-125 17 -172 65 -16 16 -34 30 -40 30 -13 0 -104 -103 -104 -118 0 -20 80 -81
136 -103 49 -19 78 -23 175 -23 109 -1 119 1 175 29 102 52 152 160 124 266
-26 96 -90 140 -264 179 -108 24 -146 49 -146 94 0 81 167 99 252 28 36 -30
44 -27 103 42 l40 48 -30 25 c-61 51 -113 67 -225 70 -83 3 -116 0 -158 -15z"/>
<path d="M12950 2137 c-59 -20 -170 -89 -170 -105 0 -6 62 -103 76 -121 2 -2
21 11 43 28 63 50 118 71 191 71 75 0 105 -15 115 -59 14 -63 -26 -90 -167
-117 -202 -38 -278 -104 -278 -239 0 -136 93 -225 234 -225 85 0 126 17 179
72 26 28 49 49 50 47 1 -2 9 -17 17 -34 9 -16 31 -40 50 -53 30 -21 44 -23
107 -20 40 2 77 8 84 15 7 7 9 31 4 72 -7 60 -7 61 -39 61 -18 0 -37 5 -44 12
-9 9 -12 70 -12 213 0 233 -10 284 -65 340 -45 45 -115 65 -224 65 -62 0 -104
-7 -151 -23z m258 -449 c-2 -40 -10 -86 -18 -103 -37 -74 -148 -100 -209 -49
-27 22 -31 32 -31 75 0 68 27 92 128 114 42 10 84 21 92 26 37 21 42 12 38
-63z"/>
<path d="M4390 1862 c0 -307 5 -349 50 -412 38 -54 92 -75 195 -75 80 0 95 3
137 27 25 15 56 44 68 63 12 19 26 35 31 35 5 0 9 -27 9 -60 l0 -60 90 0 90 0
0 385 0 385 -89 0 -89 0 -4 -243 c-3 -236 -4 -244 -28 -291 -30 -59 -75 -86
-142 -86 -63 0 -94 13 -113 49 -12 25 -15 76 -15 301 l0 270 -95 0 -95 0 0
-288z"/>
<path d="M11080 1765 l0 -385 95 0 95 0 0 385 0 385 -95 0 -95 0 0 -385z"/>
</g>
</svg>
