<?xml version="1.0" standalone="no"?>
<!DOCTYPE svg PUBLIC "-//W3C//DTD SVG 20010904//EN"
 "http://www.w3.org/TR/2001/REC-SVG-20010904/DTD/svg10.dtd">
<svg version="1.0" xmlns="http://www.w3.org/2000/svg"
 width="512.000000pt" height="512.000000pt" viewBox="0 0 512.000000 512.000000"
 preserveAspectRatio="xMidYMid meet">
<metadata>
Created by potrace 1.14, written by Peter Selinger 2001-2017
</metadata>
<g transform="translate(0.000000,512.000000) scale(0.100000,-0.100000)"
fill="#000000" stroke="none">
<path d="M538 3253 c7 -3 16 -2 19 1 4 3 -2 6 -13 5 -11 0 -14 -3 -6 -6z"/>
<path d="M3148 3253 c6 -2 18 -2 25 0 6 3 1 5 -13 5 -14 0 -19 -2 -12 -5z"/>
<path d="M3428 3143 c7 -3 16 -2 19 1 4 3 -2 6 -13 5 -11 0 -14 -3 -6 -6z"/>
<path d="M541 3044 c0 -11 3 -14 6 -6 3 7 2 16 -1 19 -3 4 -6 -2 -5 -13z"/>
<path d="M1553 2983 c15 -2 37 -2 50 0 12 2 0 4 -28 4 -27 0 -38 -2 -22 -4z"/>
<path d="M541 2694 c0 -11 3 -14 6 -6 3 7 2 16 -1 19 -3 4 -6 -2 -5 -13z"/>
<path d="M2308 2413 c6 -2 18 -2 25 0 6 3 1 5 -13 5 -14 0 -19 -2 -12 -5z"/>
<path d="M817 2303 c18 -2 50 -2 70 0 21 2 7 4 -32 4 -38 0 -55 -2 -38 -4z"/>
<path d="M2208 2303 c12 -2 30 -2 40 0 9 3 -1 5 -23 4 -22 0 -30 -2 -17 -4z"/>
<path d="M3738 2303 c12 -2 30 -2 40 0 9 3 -1 5 -23 4 -22 0 -30 -2 -17 -4z"/>
<path d="M773 2016 c4 -10 7 -56 7 -102 0 -73 2 -84 18 -84 15 0 17 10 14 90
-4 84 -3 90 16 90 11 0 25 -7 32 -15 15 -19 5 -65 -15 -65 -19 0 -19 -3 5 -51
22 -42 40 -55 65 -45 12 4 10 10 -10 30 -29 29 -32 48 -10 66 20 16 19 64 -1
81 -8 7 -40 15 -71 17 -50 4 -55 3 -50 -12z"/>
<path d="M1050 2024 c-12 -4 -14 -22 -12 -100 l3 -95 61 3 c34 2 63 8 65 13 2
6 -14 9 -41 7 -42 -4 -44 -2 -51 27 -8 40 -1 51 36 51 16 0 29 5 29 11 0 6
-10 10 -22 9 -44 -4 -49 -1 -46 28 3 25 6 27 51 25 26 -1 47 2 47 7 0 15 -81
24 -120 14z"/>
<path d="M1280 1946 c0 -64 4 -88 16 -100 18 -19 57 -21 87 -5 16 9 22 9 25 0
2 -6 11 -11 21 -11 15 0 17 12 16 97 0 85 -2 98 -17 101 -16 3 -18 -5 -18 -71
0 -77 -15 -107 -52 -107 -27 0 -37 24 -40 100 -2 62 -6 75 -20 78 -16 3 -18
-6 -18 -82z"/>
<path d="M1577 1933 c2 -78 5 -99 17 -101 12 -3 16 10 18 60 l3 63 21 -60 c14
-42 26 -61 40 -63 15 -2 22 9 37 58 9 33 21 60 25 60 4 0 7 -26 7 -57 0 -50 3
-58 20 -61 19 -3 20 2 17 98 -3 104 -11 119 -46 85 -15 -15 -46 -104 -46 -132
0 -35 -19 -6 -39 61 -13 41 -30 77 -38 80 -35 14 -38 8 -36 -91z"/>
<path d="M2472 2020 c-32 -14 -56 -70 -48 -113 14 -73 105 -103 163 -53 24 21
28 32 28 75 0 38 -5 56 -21 71 -24 24 -88 35 -122 20z m81 -28 c41 -46 23
-142 -27 -142 -54 0 -84 85 -46 133 25 31 50 35 73 9z"/>
<path d="M2732 1933 l3 -98 54 -3 c73 -4 102 10 36 17 l-50 6 0 80 c0 78 -6
95 -33 95 -10 0 -12 -23 -10 -97z"/>
<path d="M3024 2020 c-68 -27 -73 -149 -7 -179 39 -18 110 -11 97 10 -3 5 2 6
10 3 20 -8 36 26 36 78 -1 49 -15 73 -54 88 -32 12 -53 12 -82 0z m76 -30 c25
-25 27 -95 3 -122 -39 -43 -93 -6 -93 64 0 40 27 78 55 78 8 0 24 -9 35 -20z"/>
<path d="M3323 2015 c-60 -26 -63 -142 -3 -172 27 -14 78 -17 104 -7 24 9 22
74 -2 74 -13 0 -18 -8 -17 -27 0 -23 -5 -29 -26 -31 -35 -4 -61 28 -63 77 -1
66 45 101 86 64 15 -13 21 -14 31 -4 9 10 8 15 -7 27 -25 18 -61 17 -103 -1z"/>
<path d="M3562 1933 c3 -89 5 -98 23 -101 19 -3 20 2 15 95 -4 84 -8 98 -23
101 -16 3 -17 -5 -15 -95z"/>
<path d="M3750 2017 c-30 -15 -38 -58 -15 -77 8 -7 29 -20 47 -29 17 -9 35
-25 39 -36 6 -18 2 -21 -22 -23 -16 -1 -39 2 -50 8 -27 15 -48 1 -24 -17 29
-20 92 -16 116 8 32 32 21 60 -33 89 -30 16 -48 32 -48 43 0 24 26 32 55 17
30 -16 56 -3 30 17 -23 16 -62 17 -95 0z"/>
<path d="M4273 2012 c-3 -9 -19 -50 -35 -90 -32 -84 -34 -92 -12 -92 8 0 20
14 25 30 9 25 16 30 44 30 28 0 35 -5 44 -30 7 -20 17 -30 30 -30 12 0 21 1
21 3 0 1 -16 42 -34 91 -24 64 -40 92 -55 98 -16 6 -23 3 -28 -10z m37 -39 c0
-10 3 -28 6 -40 5 -20 2 -23 -21 -23 -21 0 -26 4 -21 16 3 9 9 27 12 40 7 28
24 32 24 7z"/>
<path d="M1928 1931 c-20 -50 -33 -92 -30 -95 13 -14 31 -4 41 24 8 25 15 30
41 30 26 0 34 -5 43 -30 7 -18 19 -30 29 -30 10 0 18 2 18 5 0 4 -14 46 -31
95 -27 77 -35 90 -53 90 -19 0 -28 -15 -58 -89z m66 35 c3 -13 9 -31 12 -40 5
-12 0 -16 -21 -16 -23 0 -26 3 -21 23 3 12 6 30 6 40 0 25 17 21 24 -7z"/>
<path d="M2188 2013 c35 -5 36 -6 37 -123 0 -47 3 -55 20 -58 19 -3 20 3 20
85 l0 88 30 6 c17 4 -6 6 -55 6 -47 0 -70 -2 -52 -4z"/>
<path d="M3985 2011 l30 -6 3 -88 c3 -79 5 -87 22 -87 18 0 20 7 20 89 l0 90
33 4 c17 2 -6 4 -53 4 -48 0 -72 -2 -55 -6z"/>
</g>
</svg>
