<svg width="220" height="80" viewBox="0 0 220 80" fill="none" xmlns="http://www.w3.org/2000/svg">
<path d="M63.7525 71.8553L62.6275 70.2511C62.4869 70.2667 62.3827 70.272 62.315 70.272H61.0233V71.8553H60.2733V66.6678H62.315C62.9817 66.6678 63.5077 66.8292 63.8983 67.147C64.2838 67.4699 64.4817 67.9126 64.4817 68.4803C64.4817 68.8709 64.3775 69.2095 64.1692 69.5011C63.9713 69.7824 63.6952 69.9803 63.3358 70.1053L64.565 71.8553H63.7525ZM62.2942 69.647C62.7525 69.647 63.1067 69.5532 63.3567 69.3553C63.6067 69.147 63.7317 68.8553 63.7317 68.4803C63.7317 68.1053 63.6067 67.824 63.3567 67.6261C63.1067 67.4178 62.7525 67.3136 62.2942 67.3136H61.0233V69.647H62.2942Z" fill="#545454"/>
<path d="M71.3734 71.2095V71.8553H67.6025V66.6678H71.2692V67.3136H68.3525V68.897H70.9567V69.5428H68.3525V71.2095H71.3734Z" fill="#545454"/>
<path d="M76.6751 71.9178C75.9772 71.9178 75.4355 71.7251 75.0501 71.3345C74.6595 70.9334 74.4668 70.3553 74.4668 69.6053V66.6678H75.2168V69.5845C75.2168 70.699 75.7012 71.2511 76.6751 71.2511C77.1439 71.2511 77.5085 71.1209 77.7585 70.8553C78.0085 70.5792 78.1335 70.1574 78.1335 69.5845V66.6678H78.8626V69.6053C78.8626 70.3553 78.6647 70.9334 78.2793 71.3345C77.8887 71.7251 77.3522 71.9178 76.6751 71.9178Z" fill="#545454"/>
<path d="M87.1254 71.8553V68.0636L85.2504 71.2303H84.9171L83.0421 68.1053V71.8553H82.3129V66.6678H82.9379L85.1046 70.3136L87.2296 66.6678H87.8337L87.8546 71.8553H87.1254Z" fill="#545454"/>
<path d="M94.6477 70.5636H91.8977L91.3143 71.8553H90.5643L92.8977 66.6678H93.6477L96.0018 71.8553H95.231L94.6477 70.5636ZM94.3977 69.9595L93.2727 67.4178L92.1477 69.9595H94.3977Z" fill="#545454"/>
<path d="M99.7431 67.3136H97.9515V66.6678H102.264V67.3136H100.472V71.8553H99.7431V67.3136Z" fill="#545454"/>
<path d="M107.345 71.9178C106.814 71.9178 106.345 71.8084 105.929 71.5845C105.512 71.3501 105.179 71.0324 104.929 70.6261C104.689 70.2095 104.574 69.7511 104.574 69.2511C104.574 68.7511 104.689 68.3032 104.929 67.897C105.179 67.4959 105.512 67.1834 105.929 66.9595C106.345 66.7251 106.814 66.6053 107.345 66.6053C107.856 66.6053 108.324 66.7251 108.741 66.9595C109.168 67.1834 109.501 67.4959 109.741 67.897C109.975 68.3032 110.095 68.7511 110.095 69.2511C110.095 69.7667 109.975 70.2251 109.741 70.6261C109.501 71.0324 109.168 71.3501 108.741 71.5845C108.324 71.8084 107.856 71.9178 107.345 71.9178ZM107.345 71.2511C107.72 71.2511 108.059 71.1678 108.366 71.0011C108.668 70.824 108.908 70.5792 109.074 70.272C109.251 69.9699 109.345 69.6261 109.345 69.2511C109.345 68.8761 109.251 68.5428 109.074 68.2511C108.908 67.949 108.668 67.7095 108.366 67.5428C108.059 67.3657 107.72 67.272 107.345 67.272C106.955 67.272 106.606 67.3657 106.304 67.5428C105.996 67.7095 105.751 67.949 105.574 68.2511C105.408 68.5428 105.324 68.8761 105.324 69.2511C105.324 69.6261 105.408 69.9699 105.574 70.272C105.751 70.5792 105.996 70.824 106.304 71.0011C106.606 71.1678 106.955 71.2511 107.345 71.2511Z" fill="#545454"/>
<path d="M113.159 66.6678H113.909V71.2095H116.722V71.8553H113.159V66.6678Z" fill="#545454"/>
<path d="M121.855 71.9178C121.324 71.9178 120.855 71.8084 120.438 71.5845C120.022 71.3501 119.688 71.0324 119.438 70.6261C119.199 70.2095 119.084 69.7511 119.084 69.2511C119.084 68.7511 119.199 68.3032 119.438 67.897C119.688 67.4959 120.022 67.1834 120.438 66.9595C120.855 66.7251 121.324 66.6053 121.855 66.6053C122.366 66.6053 122.834 66.7251 123.251 66.9595C123.678 67.1834 124.011 67.4959 124.251 67.897C124.485 68.3032 124.605 68.7511 124.605 69.2511C124.605 69.7667 124.485 70.2251 124.251 70.6261C124.011 71.0324 123.678 71.3501 123.251 71.5845C122.834 71.8084 122.366 71.9178 121.855 71.9178ZM121.855 71.2511C122.23 71.2511 122.569 71.1678 122.876 71.0011C123.178 70.824 123.418 70.5792 123.584 70.272C123.761 69.9699 123.855 69.6261 123.855 69.2511C123.855 68.8761 123.761 68.5428 123.584 68.2511C123.418 67.949 123.178 67.7095 122.876 67.5428C122.569 67.3657 122.23 67.272 121.855 67.272C121.464 67.272 121.116 67.3657 120.813 67.5428C120.506 67.7095 120.261 67.949 120.084 68.2511C119.918 68.5428 119.834 68.8761 119.834 69.2511C119.834 69.6261 119.918 69.9699 120.084 70.272C120.261 70.5792 120.506 70.824 120.813 71.0011C121.116 71.1678 121.464 71.2511 121.855 71.2511Z" fill="#545454"/>
<path d="M131.273 69.2303H131.982V71.2511C131.732 71.4595 131.43 71.6261 131.086 71.7511C130.753 71.8605 130.398 71.9178 130.023 71.9178C129.492 71.9178 129.023 71.8084 128.607 71.5845C128.19 71.3501 127.857 71.0324 127.607 70.6261C127.367 70.2251 127.253 69.7667 127.253 69.2511C127.253 68.7511 127.367 68.3032 127.607 67.897C127.857 67.4959 128.19 67.1834 128.607 66.9595C129.023 66.7251 129.503 66.6053 130.044 66.6053C130.445 66.6053 130.815 66.6782 131.148 66.8136C131.492 66.9542 131.784 67.147 132.023 67.397L131.565 67.8553C131.148 67.4699 130.648 67.272 130.065 67.272C129.674 67.272 129.32 67.3553 129.003 67.522C128.68 67.6886 128.43 67.9282 128.253 68.2303C128.086 68.5376 128.003 68.8761 128.003 69.2511C128.003 69.6261 128.086 69.9699 128.253 70.272C128.43 70.5792 128.68 70.824 129.003 71.0011C129.32 71.1678 129.674 71.2511 130.065 71.2511C130.523 71.2511 130.924 71.1417 131.273 70.9178V69.2303Z" fill="#545454"/>
<path d="M135.333 66.6678H136.083V71.8553H135.333V66.6678Z" fill="#545454"/>
<path d="M141.086 71.9178C140.695 71.9178 140.32 71.8553 139.961 71.7303C139.597 71.6053 139.315 71.4542 139.107 71.272L139.378 70.6886C139.57 70.8709 139.82 71.0167 140.128 71.1261C140.445 71.2407 140.763 71.2928 141.086 71.2928C141.513 71.2928 141.836 71.2251 142.044 71.0845C142.263 70.9334 142.378 70.7303 142.378 70.4803C142.378 70.3032 142.315 70.1574 142.19 70.0428C142.076 69.9334 141.93 69.8501 141.753 69.7928C141.586 69.7407 141.347 69.6678 141.044 69.5845C140.654 69.5011 140.336 69.4126 140.086 69.3136C139.847 69.2199 139.649 69.074 139.482 68.8761C139.315 68.6834 139.232 68.4178 139.232 68.0845C139.232 67.8084 139.3 67.5584 139.44 67.3345C139.591 67.1157 139.815 66.9386 140.107 66.8136C140.399 66.6782 140.763 66.6053 141.211 66.6053C141.513 66.6053 141.815 66.647 142.107 66.7303C142.409 66.8032 142.669 66.9126 142.878 67.0636L142.628 67.6678C142.419 67.5324 142.19 67.4282 141.94 67.3553C141.69 67.272 141.445 67.2303 141.211 67.2303C140.794 67.2303 140.482 67.3084 140.274 67.4595C140.065 67.6157 139.961 67.8136 139.961 68.0636C139.961 68.2459 140.013 68.3917 140.128 68.5011C140.253 68.6157 140.399 68.699 140.565 68.7511C140.742 68.8084 140.987 68.8709 141.294 68.9386C141.68 69.0376 141.992 69.1365 142.232 69.2303C142.466 69.3292 142.669 69.4751 142.836 69.6678C143.003 69.8657 143.086 70.1209 143.086 70.4386C143.086 70.7199 143.008 70.9699 142.857 71.1886C142.716 71.4126 142.492 71.5949 142.19 71.7303C141.899 71.8553 141.529 71.9178 141.086 71.9178Z" fill="#545454"/>
<path d="M147.149 67.3136H145.357V66.6678H149.67V67.3136H147.878V71.8553H147.149V67.3136Z" fill="#545454"/>
<path d="M155.709 70.5636H152.959L152.376 71.8553H151.626L153.959 66.6678H154.709L157.064 71.8553H156.293L155.709 70.5636ZM155.459 69.9595L154.334 67.4178L153.209 69.9595H155.459Z" fill="#545454"/>
<path d="M27.4714 48.8415C27.5234 48.8051 27.5755 48.753 27.5912 48.6801C27.6276 48.5915 27.6276 48.5238 27.612 48.4509C27.5912 48.3988 27.5391 48.3623 27.4714 48.3623C27.3984 48.3623 27.3255 48.3832 27.2578 48.4353C27.2214 48.4509 27.1849 48.4717 27.1537 48.4717C26.888 48.5603 26.6589 48.6123 26.4453 48.6123C25.737 48.6123 25.1224 48.2217 24.5912 47.4457C24.5391 47.378 24.3828 47.1801 24.1484 46.8623C23.9037 46.5655 23.6224 46.2113 23.2682 45.8051C22.9349 45.3988 22.5807 45.0134 22.2266 44.6592C21.6641 44.1123 21.1484 43.7582 20.7109 43.5446C20.7995 43.1748 20.9037 42.8207 20.9922 42.4665C21.0807 42.1696 21.1693 41.8519 21.2578 41.4821C22.3151 37.3676 22.862 33.1644 22.9141 28.878C22.9662 24.7478 22.5599 20.529 21.6953 16.2217C21.5026 14.9873 21.0807 13.7165 20.4089 12.4092C19.737 11.2426 18.9453 10.6436 18.0599 10.6436C17.4089 10.6436 16.7005 10.9613 15.9609 11.5811C14.7786 12.654 13.7891 13.9457 12.9766 15.4457C12.8516 15.6384 12.7474 15.8519 12.6432 16.0811C12.5547 16.2373 12.4141 16.5238 12.2161 16.8936C12.0234 17.279 11.8307 17.6696 11.6172 18.0759L11.6016 17.7946C11.5807 17.4926 11.5651 17.1905 11.5495 16.9301C11.513 16.4144 11.4922 15.9405 11.4922 15.5134C11.4922 13.503 11.3359 11.3832 11.0182 9.15922C10.9141 8.4561 10.737 7.87276 10.487 7.41443C10.2578 6.97172 9.99219 6.74255 9.73177 6.74255C9.67448 6.74255 9.65886 6.75818 9.6224 6.75818C9.44532 6.75818 9.26823 6.8311 9.11198 6.9561C8.9349 7.07589 8.8099 7.25297 8.70573 7.5186C8.65365 7.65922 8.60157 7.8363 8.56511 8.04985C8.51302 8.25818 8.47657 8.47172 8.44011 8.68526C8.44011 8.72172 8.44011 8.75297 8.44011 8.81026C8.33594 9.65401 8.29948 10.3103 8.29948 10.7686C8.29948 11.2269 8.33594 11.5603 8.38802 11.7738C8.46094 11.9873 8.52865 12.128 8.61719 12.1957C8.74219 12.3051 8.88282 12.3571 9.0599 12.3363C9.21615 12.2842 9.32552 11.9301 9.41407 11.2634C9.48177 10.5915 9.53386 9.79464 9.58594 8.8936C9.58594 8.7738 9.60677 8.66443 9.60677 8.54464C9.7474 10.1853 9.85157 12.1071 9.96094 14.3155C10.0495 16.5238 10.0807 18.6019 10.0807 20.5967C10.1172 21.6071 10.0286 22.6644 9.79948 23.7426C7.91407 31.5603 7.33073 39.9978 8.03386 49.0342C8.07032 49.3884 8.10677 49.7946 8.1224 50.253C8.15886 50.7113 8.17448 51.1384 8.19532 51.5394C8.19532 51.9457 8.19532 52.2113 8.17448 52.3728C8.17448 52.3728 8.15886 52.4405 8.1224 52.5811C8.08594 52.7269 8.05469 52.8988 7.9974 53.0967C7.96615 53.2894 7.91407 53.4821 7.87761 53.6592C7.82552 53.8363 7.80469 53.9613 7.78907 54.0498C7.41927 55.654 7.52344 57.2061 8.14323 58.6748C8.66927 59.8571 9.44532 60.4405 10.487 60.4405C11.0026 60.4405 11.5287 60.279 12.0599 59.9769C13.1016 59.2894 13.9141 58.4978 14.4766 57.5967C15.9453 55.5498 17.2318 53.1853 18.3099 50.503C18.5026 50.0238 18.7474 49.3519 19.0651 48.4717C19.3828 47.5863 19.6693 46.8103 19.8984 46.1228C20.0755 45.6488 20.1641 45.3623 20.1953 45.2738L20.3932 44.7478C20.7422 44.7998 21.1693 45.029 21.6432 45.4353C22.1016 45.8571 22.4922 46.2269 22.7734 46.5811C23.6224 47.5551 24.3099 48.2582 24.8412 48.6644C25.3672 49.0551 25.8099 49.2634 26.2005 49.2478C26.5859 49.2478 27.0078 49.1071 27.4714 48.8415ZM17.8307 11.6488C18.1484 11.7373 18.4505 12.003 18.7318 12.4457C18.9974 12.8832 19.2109 13.2738 19.3516 13.628C20.1797 15.6905 20.7109 17.9509 20.9193 20.404C21.8359 27.7998 21.487 34.7373 19.8255 41.2321V41.2686C19.612 42.1176 19.4193 42.7321 19.2787 43.1228C19.263 43.1228 19.2422 43.1228 19.2266 43.1228C19.2109 43.1228 19.2109 43.1228 19.1901 43.1019C18.8359 43.0342 18.4297 42.9821 17.9922 42.9821C17.8516 42.9821 17.7057 42.9821 17.5339 42.9821H17.4453C16.2943 42.9821 15.237 43.2269 14.2682 43.7426C13.2786 44.253 12.3932 44.9405 11.638 45.8207C11.638 45.4144 11.638 45.029 11.6537 44.6384C11.6537 44.2686 11.6536 43.9873 11.6693 43.8259C11.6693 43.6853 11.6693 43.5655 11.6693 43.4405C11.6693 42.2373 11.6537 41.0238 11.6537 39.8051C11.6172 34.3832 11.638 28.9301 11.6901 23.4248C11.6693 21.7842 11.9557 20.1071 12.5547 18.4092C13.138 16.7165 14.2109 14.8467 15.7682 12.779C16.0287 12.4248 16.3307 12.128 16.6849 11.8988C17.0391 11.6696 17.4245 11.5967 17.8307 11.6488ZM12.8203 57.3155C12.7682 57.3676 12.7318 57.4196 12.6797 57.4717C12.5547 57.5967 12.4505 57.7217 12.3255 57.8415C12.0964 58.1071 11.8672 58.3571 11.6016 58.5655C11.3516 58.779 11.0547 58.8832 10.737 58.8832C10.5964 58.8832 10.4557 58.8519 10.3099 58.8155C9.37761 58.5134 8.83073 57.8103 8.69011 56.6592C8.66927 56.4144 8.65365 56.1488 8.65365 55.8467C8.65365 55.5655 8.65365 55.3363 8.65365 55.1801C8.66927 55.1071 8.66927 55.0707 8.66927 55.0551C8.75782 55.6176 8.91927 56.0238 9.12761 56.2738C9.34115 56.5186 9.55469 56.6592 9.79948 56.6801C10.0286 56.7113 10.2578 56.6957 10.4557 56.628C10.6484 56.5551 10.7891 56.4821 10.8776 56.4144C10.8932 56.4144 10.8932 56.3936 10.9141 56.3936C10.9141 56.3936 10.9141 56.3936 10.9297 56.3936C11.0703 56.3103 11.1953 56.1853 11.2839 55.9926C11.3724 55.8155 11.4245 55.4978 11.4609 55.0551C11.5286 53.9248 11.5807 52.7946 11.5807 51.6644C11.5807 51.4873 11.5807 51.2582 11.5807 50.9613C11.5807 50.5707 11.5807 50.1853 11.6016 49.779C11.6016 49.3884 11.6172 49.0551 11.638 48.8259C11.6536 48.7373 11.6537 48.6123 11.6537 48.4509C11.6693 48.2946 11.6693 48.154 11.6693 48.0134C11.6901 47.8519 11.7057 47.7478 11.7266 47.6748C12.3047 46.2998 13.1172 45.3467 14.1589 44.7998C15.2005 44.253 16.2057 43.9717 17.1432 43.9353C18.0964 43.9144 18.6953 44.003 18.9974 44.2165C18.9766 44.2686 18.9245 44.4092 18.8724 44.6071C18.8047 44.8155 18.7474 45.0134 18.6797 45.2217C18.6068 45.4144 18.5755 45.5603 18.5547 45.628C17.9401 47.4978 17.1797 49.4405 16.2786 51.4717C15.362 53.4821 14.2109 55.4405 12.8203 57.3155ZM9.82032 55.003C9.71094 54.7894 9.64323 54.5967 9.57032 54.3988C9.51823 54.2269 9.46615 53.9613 9.42969 53.6592C9.39323 53.3623 9.37761 52.9196 9.37761 52.3728C9.39323 52.1957 9.44532 51.8936 9.57032 51.5082C9.69532 51.1176 9.82032 50.7113 9.96094 50.3051C10.1172 49.8988 10.2214 49.6019 10.3307 49.404C10.3464 49.6176 10.3672 50.0603 10.3672 50.7321C10.3828 51.3988 10.3828 52.1228 10.3672 52.8832C10.3672 53.6228 10.3307 54.2269 10.2943 54.6853C10.2578 54.9144 10.1901 55.0551 10.1016 55.1071C9.99219 55.1592 9.90365 55.1228 9.82032 55.003ZM9.02344 50.0967L8.83073 48.2582C8.65365 46.8103 8.60157 44.6957 8.63282 41.9196C8.65365 39.1488 8.79427 36.3415 9.0599 33.5186C9.30469 30.6801 9.67448 28.4561 10.1536 26.8103C10.1016 29.3363 10.0807 32.2321 10.1016 35.4613C10.1172 38.7113 10.138 41.5342 10.1536 43.9509C10.1693 45.6123 10.1693 46.7426 10.1693 47.3415C9.92448 47.7113 9.67448 48.154 9.44532 48.6801C9.20052 49.1957 9.0599 49.6696 9.02344 50.0967Z" fill="#8664DB"/>
<path d="M39.9038 43.7738C39.7996 43.7946 39.7319 43.8623 39.6746 43.9509V43.9873L39.659 44.0029V44.0602L39.6225 44.1279C39.5548 44.3415 39.4663 44.5706 39.3777 44.779C39.0392 45.6279 38.6017 46.4404 38.0548 47.18C37.5236 47.9404 36.8881 48.5759 36.1277 49.1071C35.7423 49.3519 35.3361 49.5498 34.909 49.6696C34.4506 49.8102 34.0288 49.7946 33.6381 49.6175C33.4611 49.5134 33.3413 49.3519 33.2683 49.1436C33.2006 48.9456 33.1642 48.7165 33.1433 48.4873C33.1277 48.0446 33.1642 47.5863 33.2319 47.1279C33.2892 46.7738 33.3413 46.4404 33.409 46.0863C33.4298 45.9821 33.4454 45.8779 33.4611 45.7686L33.6069 45.0811C33.6381 44.8519 33.6902 44.6227 33.7267 44.3936L33.9402 43.0186C33.9767 42.8206 33.9923 42.6436 34.0288 42.4509C34.0288 42.4144 34.0288 42.3623 34.0288 42.3259C34.0444 42.2373 34.0652 42.1696 34.0652 42.0811C34.0808 41.9404 34.0965 41.779 34.1173 41.6384C34.1173 41.6019 34.1329 41.5498 34.1329 41.5134C34.2058 41.0915 34.185 40.6488 34.0808 40.2269C34.0079 39.9821 33.8673 39.7686 33.659 39.6279C33.4298 39.4873 33.2006 39.4144 32.935 39.4509C32.81 39.4665 32.685 39.5029 32.5808 39.555C32.4767 39.5759 32.3673 39.6071 32.2788 39.6279C32.3152 39.3779 32.3152 39.1175 32.2996 38.8675C32.2996 38.7269 32.2631 38.5863 32.2475 38.4456C32.2267 38.3727 32.2111 38.305 32.1746 38.2321C32.159 38.18 32.1381 38.1279 32.1225 38.0915C32.1017 38.0759 32.1017 38.0394 32.0861 38.0186C32.0183 37.8779 31.8933 37.7738 31.7319 37.7217C31.6642 37.6852 31.5756 37.6696 31.5027 37.6852C31.4506 37.6852 31.4142 37.6852 31.3829 37.7009C31.3465 37.7217 31.31 37.7217 31.2579 37.7373C31.1329 37.8259 31.0079 37.93 30.9194 38.055C30.8881 38.1071 30.8517 38.1644 30.8152 38.2165V38.2321C30.7996 38.2529 30.7996 38.2686 30.7788 38.305C30.7475 38.3363 30.7267 38.3727 30.7111 38.4248C30.5704 38.6748 30.4819 38.9561 30.4454 39.2373C30.4454 39.3988 30.4611 39.5394 30.4975 39.68C30.534 39.8415 30.6017 39.9613 30.6902 40.0863C30.8517 40.2998 31.0444 40.4561 31.2944 40.5446C31.2944 40.5602 31.2736 40.5811 31.2736 40.5811C31.2736 40.5967 31.2736 40.6175 31.2579 40.6331C31.185 40.8779 31.0965 41.1123 31.0079 41.3571C30.6017 42.2738 30.0756 43.1384 29.4194 43.9144H29.4402C29.3673 43.9873 29.3517 44.0759 29.3673 44.1644C29.4038 44.2321 29.4558 44.305 29.5444 44.3415C29.6329 44.3571 29.7215 44.3415 29.7944 44.2894C29.81 44.2686 29.8256 44.2529 29.8465 44.2321C29.8465 44.2165 29.8621 44.2165 29.8621 44.2165L29.935 44.1279C30.1277 43.9144 30.3048 43.7061 30.4611 43.4925C30.8152 43.0498 31.1173 42.5759 31.3986 42.0811C31.6433 41.6384 31.8413 41.18 32.0183 40.6852C32.1017 40.6852 32.1746 40.6852 32.2631 40.6852C32.4038 40.6852 32.5652 40.6696 32.7058 40.6331C32.7371 40.6175 32.7944 40.6175 32.8465 40.5967C32.8621 40.5967 32.8829 40.5967 32.8986 40.5811L32.9871 40.5602C32.9871 40.5811 33.0027 40.6175 33.0027 40.6331C33.0027 40.6852 33.0027 40.7373 33.0027 40.7946C33.0027 40.8988 32.9871 41.0238 32.9715 41.1279C32.935 41.3571 32.8986 41.5863 32.8465 41.7998C32.7371 42.2581 32.6329 42.7009 32.5288 43.1592C32.4923 43.3154 32.4558 43.4769 32.4194 43.6331C32.3517 43.9352 32.2788 44.2165 32.2111 44.5186C32.1225 44.9769 32.0496 45.4352 31.9975 45.8936C31.8725 46.8311 31.8725 47.7634 31.9975 48.7009C32.034 48.9456 32.1017 49.1748 32.1746 49.404C32.2631 49.6331 32.3881 49.8467 32.5288 50.0394C32.685 50.2373 32.8829 50.3936 33.1121 50.5186C33.3204 50.6436 33.5704 50.7113 33.8152 50.7477C34.2944 50.7998 34.7683 50.7477 35.2475 50.5863C35.685 50.43 36.1121 50.2165 36.5183 49.9509C37.31 49.404 37.9663 48.7529 38.5131 47.9561C39.0392 47.18 39.4819 46.3675 39.8361 45.4873C39.9246 45.2738 39.9923 45.0446 40.0652 44.8154C40.1017 44.7113 40.1538 44.6071 40.1694 44.4977L40.2215 44.3206L40.2579 44.2321L40.2788 44.2009V44.18V44.1644V44.1436C40.2944 44.0394 40.2579 43.9352 40.1902 43.8623C40.1173 43.7946 40.0131 43.7581 39.9038 43.7738ZM33.0392 40.5602C33.0392 40.5602 33.0392 40.5602 33.0548 40.5602C33.0548 40.5602 33.0548 40.5602 33.0392 40.5602C33.0392 40.5602 33.0392 40.5602 33.0548 40.5602H33.0392ZM31.435 39.0967C31.435 39.0446 31.4506 38.9925 31.4663 38.9561C31.4871 39.029 31.4871 39.0967 31.4871 39.1696C31.4871 39.2738 31.4871 39.3988 31.4871 39.5029C31.4506 39.4873 31.435 39.4509 31.4142 39.3988C31.3986 39.3102 31.3986 39.2061 31.435 39.0967Z" fill="#8664DB"/>
<path d="M40.4338 47.5342C41.2463 47.2009 41.9702 46.7582 42.6369 46.2113C42.7619 46.1228 42.9025 46.0186 43.0275 45.9301C43.1317 45.878 43.2411 45.8415 43.3452 45.8415C43.4338 45.8415 43.5379 45.878 43.6108 45.9665C43.6473 45.9821 43.6629 46.0186 43.6994 46.0498C43.6994 46.0707 43.715 46.0707 43.7358 46.0863L43.8556 46.2478C43.9077 46.3155 43.9806 46.3884 44.0536 46.4561C44.0692 46.4926 44.0848 46.5134 44.1056 46.529C44.2983 46.7217 44.4911 46.8832 44.7202 47.0238C44.9494 47.1644 45.1994 47.253 45.465 47.2686C46.0119 47.3051 46.5223 47.2165 47.0015 47.0394C47.4911 46.8988 47.9702 46.7061 48.4286 46.4769C48.8869 46.2634 49.3296 46.0186 49.7723 45.753C49.9806 45.6123 50.1942 45.4717 50.4077 45.3103C50.6161 45.1696 50.814 45.0134 50.9858 44.8155L51.0067 44.8363L51.1317 44.6957C51.1838 44.6384 51.2358 44.5863 51.2723 44.5342L51.2879 44.5186C51.2879 44.5186 51.3088 44.4978 51.3088 44.4821C51.3244 44.4821 51.3244 44.4613 51.34 44.4457C51.3608 44.4092 51.3608 44.3571 51.3608 44.3207C51.3608 44.2686 51.34 44.2321 51.3088 44.2009C51.2723 44.1644 51.2515 44.1436 51.2202 44.128H51.1994C51.1473 44.1123 51.0952 44.0915 51.0431 44.1123C51.0067 44.1123 50.9702 44.1123 50.9546 44.128C50.9338 44.1436 50.9181 44.1436 50.9025 44.1644C50.9025 44.1644 50.9025 44.1644 50.8817 44.1644H50.9025C50.8452 44.2009 50.7931 44.2165 50.7775 44.253C50.7567 44.2686 50.7411 44.2686 50.7254 44.2894L50.5848 44.4092L50.2827 44.6384C50.09 44.7998 49.8765 44.9561 49.6838 45.0967C49.2775 45.3988 48.8504 45.6801 48.4129 45.9092C47.9702 46.1748 47.4911 46.3363 47.0015 46.404C46.4858 46.4561 46.0119 46.3884 45.5848 46.1384C45.3765 46.0186 45.215 45.8415 45.0952 45.6123C44.9858 45.4144 44.8973 45.1853 44.8296 44.9561C44.8296 44.9561 44.8296 44.9405 44.8296 44.9248C44.7567 44.6748 44.6317 44.4457 44.4754 44.2165C44.3869 44.0915 44.2827 44.0238 44.1213 43.9873C43.9806 43.9509 43.84 43.9717 43.6994 44.003C43.4494 44.1123 43.2202 44.2321 43.0119 44.378C42.7983 44.5186 42.5848 44.6748 42.3921 44.8519C42.3765 44.8676 42.3556 44.8884 42.3192 44.904C42.1629 45.0446 41.9858 45.1853 41.8088 45.3311C41.7567 45.3623 41.7046 45.3988 41.6525 45.4353C41.6004 45.4717 41.5431 45.503 41.4911 45.5394C41.4025 45.628 41.2983 45.7009 41.1942 45.7894C40.8036 46.1228 40.3817 46.3676 39.9233 46.5134C39.9025 46.5134 39.8869 46.5134 39.8661 46.529C39.8348 46.529 39.7983 46.5446 39.7463 46.5446H39.6577C39.6369 46.5446 39.6369 46.5446 39.6213 46.5655L39.6056 46.5446C39.5692 46.5446 39.5327 46.529 39.5171 46.5134C39.4963 46.4769 39.4806 46.4405 39.4963 46.404C39.4963 46.3884 39.4963 46.3676 39.5171 46.3519L39.5692 46.2842L39.6733 46.1228C39.689 46.1071 39.7098 46.0863 39.7254 46.0707C39.7775 45.9821 39.8348 45.9092 39.9025 45.8207C40.2202 45.4353 40.5744 45.0811 40.965 44.779C41.3661 44.4821 41.7931 44.2321 42.2515 44.0394C42.7098 43.8467 43.189 43.7217 43.6786 43.6696C44.1942 43.5967 44.689 43.5967 45.1786 43.654C45.2515 43.6696 45.34 43.6853 45.4129 43.6853C45.465 43.7061 45.5015 43.7061 45.5536 43.7217C45.5692 43.7217 45.5848 43.7217 45.6056 43.7217C45.6577 43.7426 45.6942 43.7426 45.7306 43.7426L45.9025 43.7946L46.1004 43.8259C46.1161 43.8259 46.1369 43.8467 46.1525 43.8467C46.189 43.8623 46.2411 43.8623 46.3088 43.8623C46.4181 43.8623 46.5067 43.8259 46.5744 43.7582C46.6473 43.6853 46.6838 43.5967 46.6994 43.4926C46.6994 43.4405 46.6838 43.404 46.6629 43.3519C46.6473 43.2998 46.6108 43.2634 46.5744 43.2269C46.5379 43.1748 46.4858 43.1384 46.4338 43.0863C46.3088 43.0186 46.2046 42.9457 46.0796 42.8728C45.8348 42.7686 45.5692 42.7009 45.3036 42.6644C44.2619 42.5238 43.2411 42.5915 42.2358 42.8571C41.2254 43.1384 40.3088 43.6176 39.5171 44.2894C39.1108 44.6071 38.7358 44.9561 38.3869 45.3467C38.2098 45.5238 38.0483 45.7321 37.9077 45.9665C37.7671 46.2113 37.715 46.4769 37.7306 46.7738C37.7515 46.9196 37.8036 47.0603 37.8713 47.1801C37.9442 47.3051 38.0171 47.4092 38.1213 47.4978C38.3504 47.6957 38.6161 47.7998 38.8973 47.7998C39.1629 47.7998 39.4286 47.7842 39.6733 47.7269C39.939 47.6957 40.1838 47.6228 40.4338 47.5342Z" fill="#8664DB"/>
<path d="M52.6635 47.0394C52.5385 46.9509 52.4343 46.9196 52.2937 46.8988C52.1687 46.8988 52.0281 46.9196 51.9187 46.9873C51.7989 47.0394 51.7104 47.1123 51.6583 47.2009C51.5854 47.2894 51.5489 47.3571 51.5333 47.4457C51.5177 47.4821 51.4968 47.5186 51.4968 47.5551C51.4812 47.5863 51.4812 47.6071 51.4812 47.6384V47.6592C51.4604 47.7269 51.4604 47.8155 51.4812 47.904C51.4968 48.029 51.5333 48.1332 51.5854 48.2426C51.6895 48.3832 51.8145 48.4717 51.976 48.5394C52.0437 48.5603 52.1166 48.5603 52.1843 48.5603C52.2937 48.5603 52.3822 48.5394 52.4708 48.5082C52.627 48.4353 52.7312 48.3467 52.8197 48.2061C52.8562 48.1332 52.8927 48.0655 52.9083 47.9926C52.9083 47.9769 52.9083 47.9561 52.9291 47.9248C52.9447 47.8363 52.9604 47.6957 52.9447 47.5342C52.9083 47.3207 52.8197 47.1644 52.6635 47.0394Z" fill="#8664DB"/>
<path d="M99.841 18.9404C100.315 17.3883 100.388 15.9404 100.07 14.6175C99.716 13.1696 98.8357 12.2477 97.4243 11.8779C96.9816 11.7738 96.5597 11.7217 96.117 11.7217C95.3045 11.7217 94.4555 11.8988 93.5753 12.2477C92.4816 12.7113 91.3514 13.3258 90.2003 14.1019C87.341 16.0446 84.6066 18.904 81.9764 22.68C80.3878 25.029 79.0128 27.3779 77.8826 29.7269C76.7524 32.0915 75.8149 34.2633 75.0597 36.2373C74.2628 38.2686 73.5024 40.4404 72.7785 42.7842C72.0389 45.1331 71.4034 47.2373 70.8722 49.0706C70.8722 49.0863 70.8722 49.0863 70.8722 49.1071C70.7837 49.404 70.7003 49.6904 70.6118 49.9717L70.3462 49.8988C70.4347 49.2842 70.5545 48.4873 70.7316 47.555C70.893 46.6019 71.0493 45.7165 71.2107 44.8675C71.2107 44.8519 71.2107 44.8154 71.2264 44.7998C71.2993 44.43 71.3514 44.0915 71.4034 43.7946C72.3045 38.779 73.5232 33.4508 75.0753 27.7633C75.466 26.2842 75.8514 24.8154 76.2212 23.3519V23.3363C76.3826 22.6644 76.5597 21.9925 76.7368 21.3206C77.018 20.2269 77.1066 19.1331 77.0337 18.0238C77.018 17.7946 76.9451 17.6331 76.8253 17.5081C76.7003 17.3883 76.5753 17.3311 76.4347 17.3311H76.4191C76.3826 17.3311 76.3462 17.3311 76.3097 17.3519C76.2576 17.3675 76.2212 17.3675 76.1899 17.3883C76.0441 17.5081 75.9555 17.6488 75.9243 17.7946C75.8722 17.9352 75.8357 18.0758 75.8357 18.2165V18.2321C75.8149 18.2686 75.8149 18.3206 75.8149 18.3727C75.341 21.0029 74.742 23.6019 73.9972 26.1227L73.9816 26.1592C73.768 26.9717 73.5389 27.8206 73.3097 28.6488C71.9503 33.6071 70.8201 38.7633 69.8878 44.1123C69.4607 46.7581 69.0909 49.3883 68.7368 51.9821C68.617 52.8675 68.492 53.7477 68.367 54.6331C68.1378 56.4144 67.9243 57.9821 67.768 59.3415L67.7524 59.4665C67.6639 59.9613 67.6639 60.4717 67.768 60.9873C67.8566 61.2842 68.0493 61.4821 68.367 61.5498C68.4191 61.5654 68.4764 61.5654 68.5284 61.5654C68.7941 61.5654 68.9868 61.4613 69.143 61.2165C69.2837 60.9665 69.393 60.6488 69.4816 60.279C69.5337 60.1227 69.5493 59.9769 69.5701 59.8727C69.5701 59.7477 69.5701 59.6592 69.5857 59.5706C69.5857 59.4665 69.5857 59.3779 69.5857 59.2529C69.6014 59.1488 69.6222 59.0081 69.6587 58.8311C69.6743 58.7633 69.6899 58.654 69.6899 58.4977C69.7107 58.3363 69.7107 58.1592 69.7264 57.9821C69.7264 57.7894 69.7472 57.6123 69.7472 57.4561C69.7628 57.2946 69.7628 57.1748 69.7784 57.1019C70.8201 52.4613 72.1795 47.6383 73.8566 42.6123C75.6222 37.2633 77.5285 32.6175 79.5962 28.7008C81.8722 24.3571 84.3774 20.8102 87.1118 18.0394C88.9139 16.0602 90.8045 14.529 92.7993 13.4144C93.1691 13.2373 93.6639 13.0446 94.3149 12.8675C94.9503 12.6904 95.5701 12.6019 96.1535 12.5863H96.1847C97.6326 12.5863 98.4972 13.5915 98.7628 15.6383C98.867 16.9977 98.6222 18.4092 97.9868 19.8571C97.0857 21.9248 95.9399 23.7946 94.5441 25.4717C90.2003 30.68 84.8878 34.3831 78.6222 36.5915C78.5701 36.6279 78.4972 36.6436 78.4451 36.6592H78.4295C78.216 36.7165 78.0232 36.805 77.8618 36.9092C77.6899 37.0342 77.6014 37.2269 77.5805 37.5081C77.5805 37.6123 77.6014 37.7008 77.6326 37.7738C77.6535 37.8467 77.7055 37.8988 77.742 37.9508C77.8826 38.0915 78.1639 38.18 78.5857 38.18C78.7107 38.18 78.8357 38.1644 78.9764 38.1644C79.1378 38.1436 79.2941 38.1436 79.4555 38.1436C81.591 38.1436 82.966 39.2217 83.6014 41.3727C83.8149 42.2373 83.9191 43.0706 83.9191 43.8258C83.9347 44.5863 83.9712 45.3467 83.9868 46.1071V46.1748C84.0441 47.6956 84.0962 49.2477 84.1326 50.7842C84.1639 51.9144 84.3097 52.8675 84.5389 53.6592C85.0857 55.4092 86.2472 56.5186 88.0857 57.029C88.3826 57.1175 88.7003 57.1904 89.0389 57.2269C89.1274 57.2269 89.1951 57.2269 89.2472 57.2269C89.3722 57.2269 89.4764 57.2061 89.5493 57.154C89.6222 57.1019 89.6743 56.9977 89.7264 56.8206C89.742 56.7321 89.7264 56.6436 89.6743 56.5394C89.6014 56.43 89.4451 56.3415 89.1795 56.2373C88.9503 56.1644 88.7212 56.0967 88.492 56.0446C88.3149 55.9925 88.1222 55.9352 87.9607 55.8831C87.3774 55.6748 86.9347 55.3206 86.6378 54.805C86.3201 54.2946 86.1066 53.7842 85.9503 53.2373C85.6639 52.1436 85.5232 51.1175 85.5441 50.1644C85.5076 48.9456 85.492 47.7477 85.492 46.5446V45.7321C85.4712 44.0915 85.367 42.7686 85.1743 41.7633C85.0285 40.8623 84.6587 39.9613 84.0597 39.0967C83.4764 38.2165 82.5232 37.5967 81.2003 37.2633C81.1639 37.2633 81.1274 37.2425 81.0962 37.2425C81.0753 37.2425 81.0597 37.2269 81.0441 37.2113L80.867 37.1019L81.0441 36.9769C81.0597 36.9613 81.1847 36.9092 81.4139 36.8206C81.6222 36.7477 81.8722 36.6436 82.1535 36.5394C82.4191 36.43 82.6639 36.3258 82.8774 36.2581C83.091 36.1696 83.1951 36.1331 83.2107 36.1123C83.8149 35.9196 84.5389 35.5863 85.367 35.1071C90.3253 32.1956 94.1587 28.7529 96.893 24.7633C98.341 22.7008 99.3305 20.7425 99.841 18.9404Z" fill="#8664DB"/>
<path d="M97.8947 44.253C97.8374 44.1644 97.7697 44.128 97.6655 44.128C97.5562 44.128 97.3791 44.1436 97.1499 44.1801C96.8166 44.253 96.1968 44.3415 95.2801 44.4301C95.4572 43.4769 95.4416 42.4665 95.2072 41.4301C95.0145 40.6488 94.5926 40.0498 93.9728 39.6071C93.0041 38.9926 91.9103 39.1176 90.7072 40.0134C90.0197 40.5446 89.4885 41.1957 89.103 41.9561C88.6968 42.7165 88.6239 43.3519 88.8895 43.8832C89.0822 44.1801 89.2801 44.3936 89.4572 44.5342L89.5093 44.5707C89.5093 45.0446 89.5458 45.5915 89.577 46.2269C89.6135 47.003 89.7905 47.7634 90.0718 48.4873C90.4416 49.3884 90.8843 49.8988 91.4312 50.0082C91.5041 50.0238 91.5926 50.0238 91.6603 50.0238C92.1187 50.0238 92.6343 49.7582 93.1603 49.2113C93.7801 48.5238 94.2541 47.7842 94.5926 47.0238C94.926 46.2634 95.1395 45.6488 95.228 45.1853C95.4572 45.154 95.7749 45.0967 96.1655 45.029C96.551 44.9405 96.9208 44.8519 97.2593 44.7478C97.6083 44.6384 97.8218 44.5342 97.8947 44.4092C97.9103 44.3571 97.9103 44.3051 97.8947 44.253ZM90.9364 43.8623C91.0614 43.3363 91.1864 42.9613 91.2905 42.7165C91.3947 42.4665 91.5041 42.3259 91.6083 42.2582C91.7333 42.1853 91.8374 42.1488 91.9468 42.1488C92.0145 42.1332 92.0874 42.1176 92.1551 42.0967L92.2437 42.0811L92.1916 41.9926C92.051 41.7478 91.7853 41.6019 91.452 41.5863C90.9728 41.5863 90.5874 41.8519 90.2489 42.3832C90.1603 42.5394 90.0718 42.753 89.9833 42.9978C90.0405 42.8051 90.1083 42.6123 90.2124 42.4144C90.2853 42.1853 90.5666 41.7998 91.0614 41.2686C91.327 41.0238 91.5926 40.8259 91.8374 40.7061C92.6655 40.279 93.3739 40.2998 93.9051 40.7582C94.2541 41.1123 94.452 41.6748 94.4885 42.4665C94.5041 43.2478 94.452 43.9144 94.327 44.4978C93.853 44.5342 93.2489 44.4821 92.5249 44.3571C91.801 44.2165 91.2749 44.0603 90.9364 43.8623ZM90.8166 45.154C91.2749 45.3311 91.8218 45.4353 92.4572 45.4509C93.0926 45.4873 93.6395 45.4509 94.0978 45.3832C93.7958 46.7217 93.2697 47.7998 92.4937 48.6123C92.228 48.8571 91.9989 48.9665 91.801 48.9301C91.6083 48.8936 91.4155 48.6801 91.2228 48.2946C91.077 47.9561 90.9728 47.6228 90.9051 47.2686C90.8166 46.6853 90.7801 46.2269 90.7801 45.9092C90.7593 45.5915 90.7801 45.3311 90.8166 45.154Z" fill="#8664DB"/>
<path d="M108.375 44.0915C108.286 44.0759 108.198 44.0759 108.109 44.0759C108.057 44.0759 108.005 44.0915 107.969 44.0915C107.932 44.0915 107.901 44.0915 107.88 44.0915C107.792 44.1124 107.724 44.128 107.651 44.128C107.615 44.1436 107.599 44.1436 107.562 44.1436C107.51 44.1644 107.458 44.1644 107.422 44.1801C107.104 44.253 106.823 44.3415 106.521 44.4457C105.937 44.6384 105.359 44.8884 104.792 45.154C104.229 45.3988 103.682 45.6801 103.135 45.9821C102.62 46.2842 102.109 46.5811 101.599 46.8832C101.474 46.7061 101.349 46.5134 101.208 46.3519L100.75 45.753C100.448 45.3832 100.167 44.9769 99.901 44.5707C99.7812 44.3571 99.6927 44.128 99.6198 43.9144C99.5677 43.6696 99.5521 43.4405 99.5677 43.2113C99.5833 42.9613 99.6406 42.7321 99.7448 42.5238C99.8125 42.2946 99.9375 42.0811 100.078 41.8884C100.219 41.7113 100.396 41.5342 100.573 41.3936C100.594 41.3728 100.609 41.3728 100.625 41.3571C100.698 41.3051 100.786 41.253 100.875 41.1957C100.891 41.1957 100.891 41.1957 100.891 41.1957C100.927 41.1801 100.964 41.1644 100.979 41.1436C100.979 41.1644 100.979 41.1644 100.964 41.1801C100.964 41.1957 100.943 41.2165 100.943 41.2321C100.875 41.3415 100.823 41.4457 100.75 41.5342C100.714 41.6019 100.661 41.6592 100.625 41.7113C100.536 41.8676 100.432 42.0082 100.344 42.1696C100.344 42.1696 100.344 42.1696 100.344 42.1853C100.307 42.2217 100.276 42.2946 100.255 42.3467C100.24 42.3624 100.24 42.3832 100.24 42.4144C100.24 42.4144 100.24 42.4144 100.219 42.4353V42.4509C100.219 42.4665 100.24 42.4874 100.24 42.5238C100.255 42.5394 100.276 42.5551 100.292 42.5551C100.292 42.5759 100.307 42.5759 100.328 42.5759L100.344 42.5915H100.359H100.38L100.396 42.5759C100.417 42.5759 100.432 42.5759 100.432 42.5551C100.448 42.5551 100.448 42.5551 100.448 42.5551C100.448 42.5551 100.448 42.5551 100.469 42.5551L100.505 42.5238C100.536 42.503 100.594 42.4874 100.625 42.4665C100.698 42.4353 100.766 42.3832 100.839 42.3467C100.854 42.3259 100.891 42.3103 100.927 42.2946C100.995 42.2374 101.083 42.1853 101.156 42.1332L101.297 42.029L101.458 41.904C101.526 41.8519 101.599 41.7999 101.651 41.7269C101.687 41.7113 101.719 41.6749 101.74 41.6592C101.755 41.6384 101.776 41.6228 101.792 41.6019C101.865 41.5342 101.932 41.4457 102.005 41.3571C102.161 41.1644 102.286 40.9353 102.375 40.6853C102.427 40.5603 102.443 40.4196 102.464 40.279C102.479 40.1384 102.443 39.9978 102.375 39.8571C102.302 39.7165 102.182 39.628 102.036 39.5551C101.896 39.5238 101.755 39.503 101.63 39.503C101.37 39.4874 101.12 39.5238 100.854 39.5759C100.609 39.6436 100.359 39.7321 100.13 39.8571C99.6927 40.1228 99.3021 40.4769 99.0052 40.878C98.6875 41.3051 98.4739 41.7634 98.3333 42.2582C98.1927 42.753 98.1718 43.2634 98.2604 43.7946C98.3125 44.0394 98.3854 44.2894 98.5104 44.5342C98.6146 44.7634 98.7396 44.9769 98.8958 45.1853C99.1093 45.4874 99.3385 45.7894 99.5677 46.0863C99.6406 46.1749 99.7083 46.2842 99.7812 46.3676C99.7968 46.404 99.8125 46.4249 99.8333 46.4405C99.9739 46.6176 100.099 46.7946 100.219 46.9717C100.307 47.0603 100.38 47.1644 100.432 47.2686C100.484 47.3415 100.536 47.4092 100.573 47.4821C100.484 47.5707 100.396 47.6592 100.307 47.7269C100.276 47.7478 100.255 47.7634 100.24 47.7842C100.099 47.904 99.9583 48.029 99.8125 48.1696C99.5521 48.4353 99.3229 48.7374 99.1093 49.0342C98.6666 49.654 98.3333 50.3259 98.1041 51.0499C97.9948 51.3988 97.9062 51.7738 97.8541 52.1436C97.8021 52.5134 97.8021 52.8988 97.8541 53.2738C97.875 53.4665 97.9271 53.6592 98.0156 53.8363C98.1041 54.0134 98.2083 54.1696 98.3489 54.3155C98.651 54.5967 99.0052 54.753 99.3906 54.8259C99.7968 54.8936 100.167 54.8051 100.521 54.6124C100.854 54.3988 101.141 54.154 101.385 53.8728C101.63 53.5915 101.88 53.3051 102.073 52.9874C102.286 52.6905 102.464 52.3519 102.604 52.003C102.745 51.6488 102.849 51.2946 102.901 50.9249C102.958 50.5342 102.958 50.1644 102.901 49.7946C102.87 49.4249 102.781 49.0551 102.656 48.7009L102.286 47.7113C102.708 47.3207 103.167 46.9717 103.646 46.654C104.156 46.3363 104.667 46.0342 105.198 45.753C105.729 45.4874 106.255 45.2217 106.802 44.9769L107.615 44.6228C107.755 44.5499 107.901 44.4978 108.021 44.4301C108.094 44.3936 108.161 44.3571 108.234 44.3207C108.271 44.3051 108.307 44.2894 108.339 44.253C108.339 44.253 108.359 44.2321 108.375 44.2165C108.391 44.2009 108.391 44.1801 108.411 44.1644C108.411 44.1436 108.411 44.1436 108.411 44.128C108.411 44.128 108.411 44.1124 108.391 44.1124C108.391 44.0915 108.391 44.0915 108.391 44.0915H108.375ZM101.245 48.6124C101.37 48.8051 101.458 49.0342 101.51 49.2842C101.526 49.404 101.562 49.5499 101.578 49.6905L101.63 50.0967V50.128C101.63 50.128 101.63 50.128 101.63 50.1488C101.615 50.3415 101.578 50.5186 101.526 50.7113C101.49 50.8363 101.474 50.9613 101.437 51.0811C101.401 51.1696 101.385 51.2426 101.37 51.3311C101.297 51.5394 101.229 51.7374 101.12 51.9301C101.031 52.1228 100.927 52.2999 100.802 52.4769C100.677 52.654 100.536 52.8103 100.396 52.9717C100.359 53.0238 100.307 53.0759 100.255 53.128C100.24 53.1644 100.203 53.1853 100.187 53.2009C100.115 53.2738 100.026 53.3415 99.9375 53.3936C99.8698 53.4457 99.7812 53.4821 99.6718 53.5186C99.6406 53.5342 99.5833 53.5551 99.5521 53.5551C99.5312 53.5551 99.5156 53.5551 99.5156 53.5551C99.4948 53.5551 99.4948 53.5551 99.4791 53.5342C99.4635 53.5186 99.4271 53.503 99.4062 53.4665C99.3906 53.4301 99.375 53.3936 99.3541 53.3415C99.3229 53.253 99.2864 53.1644 99.2864 53.0603C99.2656 52.9717 99.25 52.8676 99.2656 52.779C99.2656 52.7426 99.2656 52.7269 99.2656 52.7061C99.2656 52.6176 99.2864 52.529 99.2864 52.4613C99.3229 52.2478 99.3541 52.0342 99.4062 51.8259C99.4948 51.4196 99.6406 51.0134 99.8125 50.6228C100.01 50.2374 100.219 49.8676 100.469 49.5134C100.677 49.1749 100.943 48.878 101.245 48.6124Z" fill="#8664DB"/>
<path d="M108.815 47.5342C109.628 47.2009 110.352 46.7582 111.018 46.2113C111.143 46.1228 111.284 46.0186 111.409 45.9301C111.513 45.878 111.622 45.8415 111.727 45.8415C111.815 45.8415 111.919 45.878 111.992 45.9665C112.029 45.9821 112.044 46.0186 112.081 46.0498C112.081 46.0707 112.096 46.0707 112.117 46.0863L112.237 46.2478C112.289 46.3155 112.362 46.3884 112.435 46.4561C112.45 46.4926 112.466 46.5134 112.487 46.529C112.68 46.7217 112.872 46.8832 113.102 47.0238C113.331 47.1644 113.581 47.253 113.846 47.2686C114.393 47.3051 114.904 47.2165 115.383 47.0394C115.872 46.8988 116.352 46.7061 116.81 46.4769C117.268 46.2634 117.711 46.0186 118.154 45.753C118.362 45.6123 118.575 45.4717 118.789 45.3103C118.997 45.1696 119.195 45.0134 119.367 44.8155L119.388 44.8363L119.513 44.6957C119.565 44.6384 119.617 44.5863 119.654 44.5342L119.669 44.5186C119.669 44.5186 119.69 44.4978 119.69 44.4821C119.706 44.4821 119.706 44.4613 119.721 44.4457C119.742 44.4092 119.742 44.3571 119.742 44.3207C119.742 44.2686 119.721 44.2321 119.69 44.2009C119.654 44.1644 119.633 44.1436 119.602 44.128H119.581C119.529 44.1123 119.477 44.0915 119.424 44.1123C119.388 44.1123 119.352 44.1123 119.336 44.128C119.315 44.1436 119.299 44.1436 119.284 44.1644C119.284 44.1644 119.284 44.1644 119.263 44.1644H119.284C119.227 44.2009 119.174 44.2165 119.159 44.253C119.138 44.2686 119.122 44.2686 119.107 44.2894L118.966 44.4092L118.664 44.6384C118.471 44.7998 118.258 44.9561 118.065 45.0967C117.659 45.3988 117.232 45.6801 116.794 45.9092C116.352 46.1748 115.872 46.3363 115.383 46.404C114.867 46.4561 114.393 46.3884 113.966 46.1384C113.758 46.0186 113.596 45.8415 113.477 45.6123C113.367 45.4144 113.279 45.1853 113.211 44.9561C113.211 44.9561 113.211 44.9405 113.211 44.9248C113.138 44.6748 113.013 44.4457 112.857 44.2165C112.768 44.0915 112.664 44.0238 112.503 43.9873C112.362 43.9509 112.221 43.9717 112.081 44.003C111.831 44.1123 111.602 44.2321 111.393 44.378C111.18 44.5186 110.966 44.6748 110.773 44.8519C110.758 44.8676 110.737 44.8884 110.7 44.904C110.544 45.0446 110.367 45.1853 110.19 45.3311C110.138 45.3623 110.086 45.3988 110.034 45.4353C109.982 45.4717 109.924 45.503 109.872 45.5394C109.784 45.628 109.68 45.7009 109.575 45.7894C109.185 46.1228 108.763 46.3676 108.305 46.5134C108.284 46.5134 108.268 46.5134 108.247 46.529C108.216 46.529 108.18 46.5446 108.128 46.5446H108.039C108.018 46.5446 108.018 46.5446 108.003 46.5655L107.987 46.5446C107.95 46.5446 107.914 46.529 107.898 46.5134C107.878 46.4769 107.862 46.4405 107.878 46.404C107.878 46.3884 107.878 46.3676 107.898 46.3519L107.95 46.2842L108.055 46.1228C108.07 46.1071 108.091 46.0863 108.107 46.0707C108.159 45.9821 108.216 45.9092 108.284 45.8207C108.602 45.4353 108.956 45.0811 109.346 44.779C109.747 44.4821 110.174 44.2321 110.633 44.0394C111.091 43.8467 111.57 43.7217 112.06 43.6696C112.575 43.5967 113.07 43.5967 113.56 43.654C113.633 43.6696 113.721 43.6853 113.794 43.6853C113.846 43.7061 113.883 43.7061 113.935 43.7217C113.95 43.7217 113.966 43.7217 113.987 43.7217C114.039 43.7426 114.075 43.7426 114.112 43.7426L114.284 43.7946L114.482 43.8259C114.497 43.8259 114.518 43.8467 114.534 43.8467C114.57 43.8623 114.622 43.8623 114.69 43.8623C114.799 43.8623 114.888 43.8259 114.956 43.7582C115.029 43.6853 115.065 43.5967 115.081 43.4926C115.081 43.4405 115.065 43.404 115.044 43.3519C115.029 43.2998 114.992 43.2634 114.956 43.2269C114.919 43.1748 114.867 43.1384 114.815 43.0863C114.69 43.0186 114.586 42.9457 114.461 42.8728C114.216 42.7686 113.95 42.7009 113.685 42.6644C112.643 42.5238 111.622 42.5915 110.617 42.8571C109.607 43.1384 108.69 43.6176 107.898 44.2894C107.492 44.6071 107.117 44.9561 106.768 45.3467C106.591 45.5238 106.43 45.7321 106.289 45.9665C106.148 46.2113 106.096 46.4769 106.112 46.7738C106.133 46.9196 106.185 47.0603 106.253 47.1801C106.325 47.3051 106.398 47.4092 106.503 47.4978C106.732 47.6957 106.997 47.7998 107.279 47.7998C107.544 47.7998 107.81 47.7842 108.055 47.7269C108.32 47.6957 108.565 47.6228 108.815 47.5342Z" fill="#8664DB"/>
<path d="M153.093 20.5446C153.182 19.628 153.203 18.7634 153.13 17.9509C153.041 16.9977 152.849 16.1332 152.547 15.3727C152.14 14.3832 151.63 13.628 150.994 13.1123C150.203 12.4613 149.281 12.1436 148.239 12.1436C146.422 12.1436 144.536 13.029 142.573 14.8102C140.614 16.5915 139.078 18.8154 137.932 21.4977L137.614 22.2946L137.666 21.43C137.776 19.6436 137.932 17.8259 138.125 15.9769C138.323 14.1227 138.515 12.4769 138.708 11.0863V11.0655C138.729 10.9248 138.692 10.7842 138.604 10.6592C138.515 10.555 138.39 10.4873 138.234 10.4509C138.213 10.4509 138.182 10.4509 138.161 10.4509C138.021 10.4509 137.896 10.4873 137.807 10.5915C137.703 10.68 137.63 10.7842 137.614 10.9248C137.385 12.4769 137.192 14.1227 137.031 15.8675C136.875 17.4561 136.75 19.1175 136.646 20.8259C136.536 22.6123 136.468 24.4457 136.416 26.3727V26.3884C136.255 27.2373 136.114 28.154 135.974 29.1227C135.692 31.1384 135.479 33.2738 135.323 35.5134V35.5863L135.286 35.6227C134.984 35.8675 134.718 36.1123 134.489 36.378C134.172 36.7477 133.906 37.1227 133.713 37.5082C133.448 38.003 133.328 38.4821 133.328 38.9196C133.328 39.2373 133.38 39.5394 133.521 39.7842C133.698 40.1019 133.942 40.3311 134.281 40.4405C134.437 40.5082 134.614 40.529 134.807 40.529C134.843 40.529 134.896 40.529 134.932 40.529L135.088 40.5082L135.073 40.6696C135.005 43.5446 135.021 46.3155 135.125 48.9977C135.198 50.8519 135.323 52.5134 135.479 53.9769C135.567 54.9144 135.692 55.7425 135.812 56.4821C135.937 57.279 136.151 58.128 136.448 58.9925C136.521 59.1852 136.625 59.3988 136.765 59.6592H136.786C136.823 59.7165 136.854 59.7686 136.89 59.8207L136.927 59.8727C136.942 59.9092 136.979 59.9457 137.031 59.9977H137.052C137.067 60.0134 137.119 60.0498 137.172 60.0863C137.244 60.1227 137.312 60.1384 137.422 60.1384C137.437 60.154 137.458 60.154 137.474 60.154C137.578 60.154 137.666 60.1227 137.755 60.0863C137.828 60.0498 137.896 59.9977 137.948 59.9457C138.005 59.8727 138.057 59.8207 138.073 59.7686C138.093 59.7321 138.109 59.6957 138.125 59.6592C138.146 59.5915 138.161 59.555 138.161 59.503C138.182 59.43 138.198 59.3623 138.213 59.2894C138.234 59.0811 138.25 58.8519 138.25 58.6175C138.25 58.4457 138.265 58.2321 138.265 57.9821C138.25 57.1748 138.234 56.3415 138.213 55.4769C138.161 54.2269 138.109 52.9717 138.057 51.753V51.7009L138.021 50.5342C137.896 47.6748 137.776 44.378 137.687 40.6488C137.687 40.3884 137.666 40.1227 137.666 39.8727V39.7686L137.755 39.7321C137.916 39.68 138.073 39.6071 138.234 39.555C139.01 39.2373 139.771 38.904 140.526 38.4977C142.062 37.7217 143.474 36.805 144.781 35.7634C145.114 35.4977 145.468 35.18 145.875 34.8102C146.281 34.4352 146.619 34.1175 146.88 33.8727L146.937 33.8207H147.005C147.338 33.8727 147.656 33.9092 147.942 33.9613C148.224 34.0134 148.557 34.0863 148.911 34.1748C148.948 34.1748 148.984 34.1905 149.015 34.2061C149.104 34.2269 149.177 34.2425 149.244 34.2425C149.265 34.2425 149.281 34.2425 149.302 34.2425C149.317 34.2269 149.317 34.2061 149.317 34.2061C149.333 34.1748 149.333 34.1384 149.333 34.1019C149.317 34.0863 149.302 34.0498 149.244 34.0342C149.192 33.9977 149.125 33.9613 149 33.9248C148.646 33.7998 148.239 33.6957 147.781 33.5915C147.692 33.5707 147.604 33.5394 147.515 33.5186L147.271 33.4665L147.427 33.2894C147.765 32.9352 148.083 32.5655 148.38 32.18C149.442 30.8727 150.343 29.4248 151.083 27.8727C151.791 26.3727 152.338 24.7634 152.687 23.055C152.864 22.2217 153.005 21.3936 153.093 20.5446ZM135.213 37.154C135.198 37.3519 135.198 37.5811 135.177 37.8623C135.177 38.1436 135.161 38.4248 135.146 38.6748L135.125 39.0446V39.378L135.021 39.3988H134.984C134.916 39.4144 134.843 39.4144 134.791 39.4144C134.739 39.4144 134.687 39.4144 134.651 39.3988H134.63C134.614 39.3988 134.578 39.378 134.562 39.3623C134.541 39.3467 134.51 39.3102 134.489 39.2738C134.453 39.2061 134.422 39.0967 134.422 38.9405C134.349 38.4457 134.526 37.8259 134.948 37.0655L135.234 36.6436L135.213 37.154ZM135.781 35.003L136.041 32.1227L136.328 32.1436L136.218 34.8623V34.9144L136.187 34.9509L136.026 35.1071L135.744 35.3884L135.781 35.003ZM135.744 36.555C135.76 36.503 135.781 36.4509 135.833 36.3988C135.869 36.3623 135.901 36.3259 135.937 36.2894C135.974 36.2738 135.989 36.2582 136.01 36.2373L136.218 36.1332V36.3623L136.276 38.9925V39.0967L136.187 39.1332L135.922 39.2217L135.744 39.2894L135.724 39.0967C135.724 38.8311 135.724 38.5134 135.724 38.1436C135.724 37.7738 135.724 37.4196 135.724 37.1227C135.724 36.805 135.724 36.628 135.744 36.555ZM136.994 57.753C136.661 57.0134 136.38 55.7061 136.166 53.8519C135.937 51.9821 135.812 50.3259 135.797 48.878C135.781 47.43 135.76 46.1071 135.744 44.904C135.692 42.9821 135.692 41.5342 135.744 40.5811C135.76 40.529 135.781 40.4769 135.833 40.4405C135.869 40.404 135.922 40.3884 135.974 40.3675C136.041 40.3519 136.078 40.3311 136.114 40.3311C136.187 40.3311 136.218 40.3519 136.255 40.3884C136.291 40.4196 136.307 40.4561 136.307 40.5082C136.328 41.18 136.38 42.2217 136.432 43.654C136.505 45.0967 136.573 46.4925 136.625 47.8519C136.698 49.1436 136.734 50.0394 136.765 50.5863L136.802 51.7894C136.823 51.8415 136.838 52.1592 136.875 52.7425C136.927 53.3259 136.979 53.9769 137.031 54.7165C137.172 56.5915 137.26 57.5811 137.26 57.6852L137.297 58.2998L136.994 57.753ZM145.26 33.8884C145.187 33.9457 145.099 34.0342 144.958 34.1384C144.817 34.2425 144.656 34.3519 144.5 34.4717C144.411 34.5446 144.307 34.6123 144.234 34.6852C144.146 34.753 144.073 34.7894 144.041 34.8259C142.802 35.8311 141.448 36.7165 140 37.4717C139.291 37.8623 138.552 38.1957 137.828 38.4977L137.63 38.5707V38.3571C137.614 37.1748 137.599 36.1488 137.578 35.305V35.2165L137.651 35.18C138.692 34.5238 139.771 34.1019 140.843 33.8727C141.922 33.6592 142.875 33.555 143.687 33.555C144.375 33.555 144.854 33.5915 145.083 33.6436C145.099 33.6436 145.099 33.6436 145.114 33.6436C145.135 33.6436 145.151 33.6436 145.172 33.6436L145.521 33.6592L145.26 33.8884ZM151.843 20.4248C151.755 21.2165 151.63 22.0134 151.474 22.7894C151.135 24.4092 150.625 25.93 149.968 27.3571C149.281 28.8259 148.437 30.1852 147.448 31.4352C146.953 32.055 146.422 32.6384 145.838 33.2217L145.807 33.253H145.734C145.578 33.2373 145.432 33.2373 145.276 33.2217C144.885 33.1852 144.463 33.1644 144.005 33.1644C143.843 33.1488 143.687 33.1488 143.547 33.1488C141.833 33.1488 140.317 33.3623 138.958 33.7477C138.552 33.8727 138.146 34.0134 137.776 34.1748L137.578 34.2425V34.0342C137.562 32.9196 137.562 31.8259 137.562 30.7686C137.578 29.2321 137.599 27.7477 137.63 26.3363V26.3155C137.755 25.68 137.88 25.0655 138.021 24.4665C138.213 23.6175 138.427 22.8415 138.656 22.1332C138.937 21.2686 139.239 20.5446 139.557 19.9457C140.406 18.4092 141.323 17.1019 142.328 16.0446C142.63 15.7269 142.911 15.4457 143.177 15.2165C143.474 14.9352 143.791 14.7009 144.093 14.4717C144.765 13.9977 145.432 13.6436 146.125 13.4144C146.672 13.2217 147.218 13.1332 147.729 13.1332C147.906 13.1332 148.099 13.1488 148.276 13.1696C149 13.2738 149.619 13.555 150.166 14.0342C150.677 14.4925 151.083 15.0915 151.385 15.8311C151.63 16.4873 151.807 17.2269 151.875 18.055C151.948 18.779 151.932 19.5759 151.843 20.4248Z" fill="#8664DB"/>
<path d="M152.596 43.7738C152.492 43.7946 152.424 43.8623 152.367 43.9509V43.9873L152.351 44.0029V44.0602L152.315 44.1279C152.247 44.3415 152.159 44.5706 152.07 44.779C151.732 45.6279 151.294 46.4404 150.747 47.18C150.216 47.9404 149.581 48.5759 148.82 49.1071C148.435 49.3519 148.028 49.5498 147.601 49.6696C147.143 49.8102 146.721 49.7946 146.331 49.6175C146.153 49.5134 146.034 49.3519 145.961 49.1436C145.893 48.9456 145.857 48.7165 145.836 48.4873C145.82 48.0446 145.857 47.5863 145.924 47.1279C145.982 46.7738 146.034 46.4404 146.101 46.0863C146.122 45.9821 146.138 45.8779 146.153 45.7686L146.299 45.0811C146.331 44.8519 146.383 44.6227 146.419 44.3936L146.633 43.0186C146.669 42.8206 146.685 42.6436 146.721 42.4509C146.721 42.4144 146.721 42.3623 146.721 42.3259C146.737 42.2373 146.758 42.1696 146.758 42.0811C146.773 41.9404 146.789 41.779 146.81 41.6384C146.81 41.6019 146.825 41.5498 146.825 41.5134C146.898 41.0915 146.877 40.6488 146.773 40.2269C146.7 39.9821 146.56 39.7686 146.351 39.6279C146.122 39.4873 145.893 39.4144 145.627 39.4509C145.502 39.4665 145.377 39.5029 145.273 39.555C145.169 39.5759 145.06 39.6071 144.971 39.6279C145.008 39.3779 145.008 39.1175 144.992 38.8675C144.992 38.7269 144.956 38.5863 144.94 38.4456C144.919 38.3727 144.903 38.305 144.867 38.2321C144.851 38.18 144.831 38.1279 144.815 38.0915C144.794 38.0759 144.794 38.0394 144.778 38.0186C144.711 37.8779 144.586 37.7738 144.424 37.7217C144.357 37.6852 144.268 37.6696 144.195 37.6852C144.143 37.6852 144.107 37.6852 144.075 37.7009C144.039 37.7217 144.002 37.7217 143.95 37.7373C143.825 37.8259 143.7 37.93 143.612 38.055C143.581 38.1071 143.544 38.1644 143.508 38.2165V38.2321C143.492 38.2529 143.492 38.2686 143.471 38.305C143.44 38.3363 143.419 38.3727 143.403 38.4248C143.263 38.6748 143.174 38.9561 143.138 39.2373C143.138 39.3988 143.153 39.5394 143.19 39.68C143.226 39.8415 143.294 39.9613 143.383 40.0863C143.544 40.2998 143.737 40.4561 143.987 40.5446C143.987 40.5602 143.966 40.5811 143.966 40.5811C143.966 40.5967 143.966 40.6175 143.95 40.6331C143.877 40.8779 143.789 41.1123 143.7 41.3571C143.294 42.2738 142.768 43.1384 142.112 43.9144H142.133C142.06 43.9873 142.044 44.0759 142.06 44.1644C142.096 44.2321 142.148 44.305 142.237 44.3415C142.325 44.3571 142.414 44.3415 142.487 44.2894C142.502 44.2686 142.518 44.2529 142.539 44.2321C142.539 44.2165 142.555 44.2165 142.555 44.2165L142.627 44.1279C142.82 43.9144 142.997 43.7061 143.153 43.4925C143.508 43.0498 143.81 42.5759 144.091 42.0811C144.336 41.6384 144.534 41.18 144.711 40.6852C144.794 40.6852 144.867 40.6852 144.956 40.6852C145.096 40.6852 145.258 40.6696 145.398 40.6331C145.43 40.6175 145.487 40.6175 145.539 40.5967C145.555 40.5967 145.575 40.5967 145.591 40.5811L145.68 40.5602C145.68 40.5811 145.695 40.6175 145.695 40.6331C145.695 40.6852 145.695 40.7373 145.695 40.7946C145.695 40.8988 145.68 41.0238 145.664 41.1279C145.627 41.3571 145.591 41.5863 145.539 41.7998C145.43 42.2581 145.325 42.7009 145.221 43.1592C145.185 43.3154 145.148 43.4769 145.112 43.6331C145.044 43.9352 144.971 44.2165 144.903 44.5186C144.815 44.9769 144.742 45.4352 144.69 45.8936C144.565 46.8311 144.565 47.7634 144.69 48.7009C144.726 48.9456 144.794 49.1748 144.867 49.404C144.956 49.6331 145.081 49.8467 145.221 50.0394C145.377 50.2373 145.575 50.3936 145.805 50.5186C146.013 50.6436 146.263 50.7113 146.508 50.7477C146.987 50.7998 147.461 50.7477 147.94 50.5863C148.377 50.43 148.805 50.2165 149.211 49.9509C150.002 49.404 150.659 48.7529 151.206 47.9561C151.732 47.18 152.174 46.3675 152.528 45.4873C152.617 45.2738 152.685 45.0446 152.758 44.8154C152.794 44.7113 152.846 44.6071 152.862 44.4977L152.914 44.3206L152.95 44.2321L152.971 44.2009V44.18V44.1644V44.1436C152.987 44.0394 152.95 43.9352 152.883 43.8623C152.81 43.7946 152.706 43.7581 152.596 43.7738ZM145.732 40.5602C145.732 40.5602 145.732 40.5602 145.747 40.5602C145.747 40.5602 145.747 40.5602 145.732 40.5602C145.732 40.5602 145.732 40.5602 145.747 40.5602H145.732ZM144.127 39.0967C144.127 39.0446 144.143 38.9925 144.159 38.9561C144.18 39.029 144.18 39.0967 144.18 39.1696C144.18 39.2738 144.18 39.3988 144.18 39.5029C144.143 39.4873 144.127 39.4509 144.107 39.3988C144.091 39.3102 144.091 39.2061 144.127 39.0967Z" fill="#8664DB"/>
<path d="M154.465 48.2738C154.308 48.3103 154.147 48.3311 153.991 48.3103C153.829 48.2946 153.689 48.2582 153.584 48.1905C153.459 48.1019 153.392 47.9926 153.34 47.8519C153.282 47.7269 153.251 47.5863 153.23 47.4457C153.215 47.3415 153.215 47.2373 153.194 47.128C153.194 47.0759 153.194 47.0394 153.178 47.003C153.163 46.8623 153.163 46.7217 153.142 46.5655C153.142 46.4248 153.142 46.2842 153.163 46.1384L153.194 45.6801L153.267 44.7998C153.303 44.4978 153.319 44.2009 153.34 43.8988C153.34 43.8832 153.34 43.8623 153.34 43.8467C153.355 43.5655 153.34 43.279 153.251 42.9821C153.215 42.8207 153.105 42.6801 152.949 42.5759C152.772 42.4665 152.579 42.4353 152.381 42.4509C151.996 42.503 151.663 42.628 151.361 42.7842L151.345 42.8051L151.324 42.8207C151.168 42.9613 151.079 43.1228 151.058 43.3363C151.058 43.4196 151.079 43.5082 151.111 43.5967C151.111 43.6176 151.111 43.6176 151.131 43.6176C151.131 43.6332 151.147 43.654 151.147 43.6696L151.168 43.7061C151.183 43.7217 151.199 43.7217 151.199 43.7426C151.272 43.7946 151.345 43.8103 151.413 43.8103C151.486 43.8259 151.553 43.8103 151.605 43.7946L151.73 43.7426C151.819 43.7061 151.892 43.6853 151.944 43.6853C151.959 43.6853 151.996 43.6853 151.996 43.6853C152.012 43.7061 152.032 43.7217 152.048 43.7426C152.064 43.7946 152.084 43.8467 152.1 43.9144C152.121 44.1644 152.121 44.3936 152.1 44.6592C152.084 44.7113 152.084 44.779 152.084 44.8519L152.032 45.7894C151.996 46.1071 151.996 46.4248 151.98 46.7426C151.98 47.0603 152.012 47.378 152.084 47.6957C152.152 48.0134 152.298 48.3103 152.47 48.5915C152.668 48.8936 152.933 49.1071 153.303 49.2269C153.673 49.3363 154.058 49.3728 154.433 49.2998C154.626 49.2634 154.803 49.2269 154.98 49.1748C155.173 49.1071 155.329 49.0342 155.506 48.9457C156.637 48.4509 157.699 47.6592 158.652 46.529C159.605 45.4144 160.183 44.6228 160.433 44.1436C160.433 44.1436 160.433 44.1436 160.433 44.128C160.433 44.1123 160.433 44.0759 160.433 44.0603C160.433 44.0238 160.418 44.003 160.418 43.9717C160.397 43.9509 160.329 43.9144 160.183 43.8832C159.762 44.5342 158.949 45.3988 157.767 46.4769C156.569 47.5707 155.475 48.1696 154.465 48.2738ZM153.251 39.8207C153.194 39.7842 153.142 39.753 153.09 39.7321C153.038 39.7165 153.001 39.6957 152.949 39.6801C152.933 39.6801 152.933 39.6801 152.913 39.6801C152.668 39.6071 152.439 39.5759 152.189 39.5915C151.944 39.5915 151.715 39.6436 151.501 39.753C151.376 39.8051 151.288 39.8728 151.199 39.9613C151.111 40.0707 151.079 40.1748 151.079 40.3155C151.111 40.4561 151.183 40.5603 151.308 40.6488C151.413 40.7217 151.538 40.7738 151.642 40.8103C151.892 40.8623 152.137 40.878 152.381 40.8623C152.616 40.8259 152.845 40.7738 153.053 40.6488C153.142 40.5967 153.23 40.529 153.319 40.4405C153.392 40.3519 153.423 40.2426 153.407 40.1384H153.392C153.392 40.0134 153.34 39.9092 153.251 39.8207Z" fill="#8664DB"/>
<path d="M169.856 44.0915C169.768 44.0759 169.679 44.0759 169.591 44.0759C169.539 44.0759 169.487 44.0915 169.45 44.0915C169.414 44.0915 169.382 44.0915 169.362 44.0915C169.273 44.1124 169.205 44.128 169.132 44.128C169.096 44.1436 169.08 44.1436 169.044 44.1436C168.992 44.1644 168.94 44.1644 168.903 44.1801C168.586 44.253 168.304 44.3415 168.002 44.4457C167.419 44.6384 166.841 44.8884 166.273 45.154C165.711 45.3988 165.164 45.6801 164.617 45.9821C164.101 46.2842 163.591 46.5811 163.08 46.8832C162.955 46.7061 162.83 46.5134 162.69 46.3519L162.231 45.753C161.929 45.3832 161.648 44.9769 161.382 44.5707C161.263 44.3571 161.174 44.128 161.101 43.9144C161.049 43.6696 161.033 43.4405 161.049 43.2113C161.065 42.9613 161.122 42.7321 161.226 42.5238C161.294 42.2946 161.419 42.0811 161.56 41.8884C161.7 41.7113 161.877 41.5342 162.054 41.3936C162.075 41.3728 162.091 41.3728 162.106 41.3571C162.179 41.3051 162.268 41.253 162.356 41.1957C162.372 41.1957 162.372 41.1957 162.372 41.1957C162.408 41.1801 162.445 41.1644 162.461 41.1436C162.461 41.1644 162.461 41.1644 162.445 41.1801C162.445 41.1957 162.424 41.2165 162.424 41.2321C162.356 41.3415 162.304 41.4457 162.231 41.5342C162.195 41.6019 162.143 41.6592 162.106 41.7113C162.018 41.8676 161.914 42.0082 161.825 42.1696C161.825 42.1696 161.825 42.1696 161.825 42.1853C161.789 42.2217 161.757 42.2946 161.737 42.3467C161.721 42.3624 161.721 42.3832 161.721 42.4144C161.721 42.4144 161.721 42.4144 161.7 42.4353V42.4509C161.7 42.4665 161.721 42.4874 161.721 42.5238C161.737 42.5394 161.757 42.5551 161.773 42.5551C161.773 42.5759 161.789 42.5759 161.81 42.5759L161.825 42.5915H161.841H161.862L161.877 42.5759C161.898 42.5759 161.914 42.5759 161.914 42.5551C161.929 42.5551 161.929 42.5551 161.929 42.5551C161.929 42.5551 161.929 42.5551 161.95 42.5551L161.987 42.5238C162.018 42.503 162.075 42.4874 162.106 42.4665C162.179 42.4353 162.247 42.3832 162.32 42.3467C162.336 42.3259 162.372 42.3103 162.408 42.2946C162.476 42.2374 162.565 42.1853 162.638 42.1332L162.778 42.029L162.94 41.904C163.007 41.8519 163.08 41.7999 163.132 41.7269C163.169 41.7113 163.2 41.6749 163.221 41.6592C163.237 41.6384 163.257 41.6228 163.273 41.6019C163.346 41.5342 163.414 41.4457 163.487 41.3571C163.643 41.1644 163.768 40.9353 163.856 40.6853C163.908 40.5603 163.924 40.4196 163.945 40.279C163.961 40.1384 163.924 39.9978 163.856 39.8571C163.783 39.7165 163.664 39.628 163.518 39.5551C163.377 39.5238 163.237 39.503 163.112 39.503C162.851 39.4874 162.601 39.5238 162.336 39.5759C162.091 39.6436 161.841 39.7321 161.612 39.8571C161.174 40.1228 160.783 40.4769 160.487 40.878C160.169 41.3051 159.955 41.7634 159.815 42.2582C159.674 42.753 159.653 43.2634 159.742 43.7946C159.794 44.0394 159.867 44.2894 159.992 44.5342C160.096 44.7634 160.221 44.9769 160.377 45.1853C160.591 45.4874 160.82 45.7894 161.049 46.0863C161.122 46.1749 161.19 46.2842 161.263 46.3676C161.278 46.404 161.294 46.4249 161.315 46.4405C161.455 46.6176 161.58 46.7946 161.7 46.9717C161.789 47.0603 161.862 47.1644 161.914 47.2686C161.966 47.3415 162.018 47.4092 162.054 47.4821C161.966 47.5707 161.877 47.6592 161.789 47.7269C161.757 47.7478 161.737 47.7634 161.721 47.7842C161.58 47.904 161.44 48.029 161.294 48.1696C161.033 48.4353 160.804 48.7374 160.591 49.0342C160.148 49.654 159.815 50.3259 159.586 51.0499C159.476 51.3988 159.388 51.7738 159.336 52.1436C159.283 52.5134 159.283 52.8988 159.336 53.2738C159.356 53.4665 159.408 53.6592 159.497 53.8363C159.586 54.0134 159.69 54.1696 159.83 54.3155C160.132 54.5967 160.487 54.753 160.872 54.8259C161.278 54.8936 161.648 54.8051 162.002 54.6124C162.336 54.3988 162.622 54.154 162.867 53.8728C163.112 53.5915 163.362 53.3051 163.554 52.9874C163.768 52.6905 163.945 52.3519 164.086 52.003C164.226 51.6488 164.33 51.2946 164.382 50.9249C164.44 50.5342 164.44 50.1644 164.382 49.7946C164.351 49.4249 164.263 49.0551 164.138 48.7009L163.768 47.7113C164.19 47.3207 164.648 46.9717 165.127 46.654C165.638 46.3363 166.148 46.0342 166.679 45.753C167.211 45.4874 167.737 45.2217 168.283 44.9769L169.096 44.6228C169.237 44.5499 169.382 44.4978 169.502 44.4301C169.575 44.3936 169.643 44.3571 169.716 44.3207C169.752 44.3051 169.789 44.2894 169.82 44.253C169.82 44.253 169.841 44.2321 169.856 44.2165C169.872 44.2009 169.872 44.1801 169.893 44.1644C169.893 44.1436 169.893 44.1436 169.893 44.128C169.893 44.128 169.893 44.1124 169.872 44.1124C169.872 44.0915 169.872 44.0915 169.872 44.0915H169.856ZM162.726 48.6124C162.851 48.8051 162.94 49.0342 162.992 49.2842C163.007 49.404 163.044 49.5499 163.06 49.6905L163.112 50.0967V50.128C163.112 50.128 163.112 50.128 163.112 50.1488C163.096 50.3415 163.06 50.5186 163.007 50.7113C162.971 50.8363 162.955 50.9613 162.919 51.0811C162.882 51.1696 162.867 51.2426 162.851 51.3311C162.778 51.5394 162.711 51.7374 162.601 51.9301C162.513 52.1228 162.408 52.2999 162.283 52.4769C162.158 52.654 162.018 52.8103 161.877 52.9717C161.841 53.0238 161.789 53.0759 161.737 53.128C161.721 53.1644 161.685 53.1853 161.669 53.2009C161.596 53.2738 161.507 53.3415 161.419 53.3936C161.351 53.4457 161.263 53.4821 161.153 53.5186C161.122 53.5342 161.065 53.5551 161.033 53.5551C161.013 53.5551 160.997 53.5551 160.997 53.5551C160.976 53.5551 160.976 53.5551 160.961 53.5342C160.945 53.5186 160.908 53.503 160.888 53.4665C160.872 53.4301 160.856 53.3936 160.836 53.3415C160.804 53.253 160.768 53.1644 160.768 53.0603C160.747 52.9717 160.731 52.8676 160.747 52.779C160.747 52.7426 160.747 52.7269 160.747 52.7061C160.747 52.6176 160.768 52.529 160.768 52.4613C160.804 52.2478 160.836 52.0342 160.888 51.8259C160.976 51.4196 161.122 51.0134 161.294 50.6228C161.492 50.2374 161.7 49.8676 161.95 49.5134C162.158 49.1749 162.424 48.878 162.726 48.6124Z" fill="#8664DB"/>
<path d="M168.989 44.2686L168.479 44.779C168.406 44.8519 168.354 44.904 168.302 44.9561C168.281 44.9925 168.25 45.029 168.213 45.0446C168.213 45.0654 168.213 45.0654 168.213 45.0654C168.125 45.154 168.052 45.2425 167.984 45.3467C167.823 45.5394 167.703 45.7686 167.63 46.0186C167.562 46.2842 167.541 46.529 167.593 46.7946C167.645 47.0394 167.755 47.2894 167.911 47.4977C168.052 47.7113 168.265 47.8727 168.494 47.9925C168.989 48.1904 169.468 48.2581 169.958 48.2217C170.948 48.1696 171.901 47.9769 172.817 47.6383C173.135 47.555 173.474 47.4456 173.791 47.3571C174.39 47.2008 174.989 47.0029 175.593 46.7946C175.75 46.7217 175.89 46.6696 176.052 46.6019C176.349 46.4925 176.651 46.3675 176.932 46.2477C177.375 46.0706 177.817 45.8779 178.255 45.6644C178.698 45.4717 179.119 45.2425 179.547 45.0133C179.776 44.8883 179.968 44.7633 180.161 44.6071C180.27 44.5342 180.359 44.4613 180.448 44.3571C180.479 44.305 180.515 44.2529 180.531 44.1644C180.531 44.1279 180.515 44.0915 180.5 44.0602C180.479 44.0394 180.479 44.0238 180.463 44.0238L180.448 44.0029C180.448 43.9873 180.427 43.9873 180.427 43.9873C180.411 43.9873 180.411 43.9873 180.39 43.9717C180.182 44.0602 180.005 44.1644 179.812 44.2529C179.562 44.3779 179.317 44.4821 179.067 44.6071C178.645 44.7998 178.203 44.9925 177.744 45.1852C176.864 45.5394 175.942 45.8571 175.026 46.1383C174.567 46.2633 174.109 46.404 173.651 46.529C173.562 46.5446 173.489 46.5654 173.401 46.6019C173.031 46.7061 172.645 46.7946 172.239 46.8623C171.781 46.9508 171.302 47.0029 170.828 47.0238C170.578 47.0238 170.349 47.0238 170.104 47.0238C170.083 47.0238 170.083 47.0238 170.067 47.0238C169.838 47.0029 169.625 46.9873 169.411 46.9508C169.291 46.9196 169.203 46.8831 169.114 46.8311C169.026 46.7581 168.953 46.6852 168.916 46.6019C168.885 46.5133 168.885 46.404 168.916 46.3154C168.953 46.2113 169.005 46.1071 169.062 46.0186C169.343 45.6279 169.677 45.2946 170.047 44.9925C170.401 44.6956 170.807 44.43 171.229 44.2165C171.656 44.0029 172.099 43.8258 172.557 43.6852C172.786 43.6175 173.015 43.5654 173.244 43.5081C173.474 43.4404 173.687 43.4404 173.859 43.5081C174.036 43.6175 174.125 43.7738 174.161 44.0029L174.177 44.1123C174.177 44.1436 174.198 44.18 174.198 44.2165C174.234 44.2894 174.286 44.3571 174.338 44.4092C174.39 44.4613 174.479 44.4977 174.567 44.5186C174.64 44.5342 174.724 44.5342 174.797 44.5186C174.937 44.4613 175.062 44.3779 175.151 44.2894C175.255 44.2008 175.343 44.0915 175.395 43.9717C175.52 43.7217 175.557 43.4561 175.52 43.1748C175.448 42.8936 175.307 42.6644 175.078 42.5029C174.849 42.3467 174.604 42.2581 174.338 42.2217C174.145 42.2061 173.948 42.2061 173.755 42.2061C173.703 42.2061 173.651 42.2061 173.599 42.2061L173.224 42.2373C173.156 42.2373 173.067 42.2581 172.994 42.2738C172.942 42.2738 172.906 42.2738 172.854 42.2946C172.38 42.3623 171.901 42.4873 171.442 42.68C170.526 43.0706 169.713 43.5967 168.989 44.2686Z" fill="#8664DB"/>
<path d="M182.1 48.2738C181.943 48.3103 181.782 48.3311 181.626 48.3103C181.464 48.2946 181.324 48.2582 181.219 48.1905C181.094 48.1019 181.027 47.9926 180.975 47.8519C180.917 47.7269 180.886 47.5863 180.865 47.4457C180.85 47.3415 180.85 47.2373 180.829 47.128C180.829 47.0759 180.829 47.0394 180.813 47.003C180.798 46.8623 180.798 46.7217 180.777 46.5655C180.777 46.4248 180.777 46.2842 180.798 46.1384L180.829 45.6801L180.902 44.7998C180.938 44.4978 180.954 44.2009 180.975 43.8988C180.975 43.8832 180.975 43.8623 180.975 43.8467C180.99 43.5655 180.975 43.279 180.886 42.9821C180.85 42.8207 180.74 42.6801 180.584 42.5759C180.407 42.4665 180.214 42.4353 180.016 42.4509C179.631 42.503 179.298 42.628 178.995 42.7842L178.98 42.8051L178.959 42.8207C178.803 42.9613 178.714 43.1228 178.693 43.3363C178.693 43.4196 178.714 43.5082 178.745 43.5967C178.745 43.6176 178.745 43.6176 178.766 43.6176C178.766 43.6332 178.782 43.654 178.782 43.6696L178.803 43.7061C178.818 43.7217 178.834 43.7217 178.834 43.7426C178.907 43.7946 178.98 43.8103 179.048 43.8103C179.12 43.8259 179.188 43.8103 179.24 43.7946L179.365 43.7426C179.454 43.7061 179.527 43.6853 179.579 43.6853C179.594 43.6853 179.631 43.6853 179.631 43.6853C179.646 43.7061 179.667 43.7217 179.683 43.7426C179.699 43.7946 179.719 43.8467 179.735 43.9144C179.756 44.1644 179.756 44.3936 179.735 44.6592C179.719 44.7113 179.719 44.779 179.719 44.8519L179.667 45.7894C179.631 46.1071 179.631 46.4248 179.615 46.7426C179.615 47.0603 179.646 47.378 179.719 47.6957C179.787 48.0134 179.933 48.3103 180.105 48.5915C180.303 48.8936 180.568 49.1071 180.938 49.2269C181.308 49.3363 181.693 49.3728 182.068 49.2998C182.261 49.2634 182.438 49.2269 182.615 49.1748C182.808 49.1071 182.964 49.0342 183.141 48.9457C184.271 48.4509 185.334 47.6592 186.287 46.529C187.24 45.4144 187.818 44.6228 188.068 44.1436C188.068 44.1436 188.068 44.1436 188.068 44.128C188.068 44.1123 188.068 44.0759 188.068 44.0603C188.068 44.0238 188.053 44.003 188.053 43.9717C188.032 43.9509 187.964 43.9144 187.818 43.8832C187.396 44.5342 186.584 45.3988 185.402 46.4769C184.204 47.5707 183.11 48.1696 182.1 48.2738ZM180.886 39.8207C180.829 39.7842 180.777 39.753 180.725 39.7321C180.673 39.7165 180.636 39.6957 180.584 39.6801C180.568 39.6801 180.568 39.6801 180.548 39.6801C180.303 39.6071 180.074 39.5759 179.824 39.5915C179.579 39.5915 179.35 39.6436 179.136 39.753C179.011 39.8051 178.923 39.8728 178.834 39.9613C178.745 40.0707 178.714 40.1748 178.714 40.3155C178.745 40.4561 178.818 40.5603 178.943 40.6488C179.048 40.7217 179.173 40.7738 179.277 40.8103C179.527 40.8623 179.771 40.878 180.016 40.8623C180.251 40.8259 180.48 40.7738 180.688 40.6488C180.777 40.5967 180.865 40.529 180.954 40.4405C181.027 40.3519 181.058 40.2426 181.042 40.1384H181.027C181.027 40.0134 180.975 39.9092 180.886 39.8207Z" fill="#8664DB"/>
<path d="M204.747 44.2321C204.747 44.2008 204.731 44.18 204.71 44.1644C204.658 44.1123 204.59 44.0915 204.502 44.0758C204.444 44.0758 204.34 44.0915 204.184 44.1279C204.023 44.18 203.83 44.305 203.58 44.4977L203.231 44.8154L202.856 45.1175C202.361 45.4873 201.851 45.8415 201.304 46.1956C200.793 46.5133 200.226 46.8102 199.648 47.0758C199.08 47.3415 198.497 47.555 197.882 47.7113C196.715 48.0133 195.481 47.9925 194.21 47.6383C193.095 47.3206 192.017 46.7738 190.981 45.9821L190.908 45.93C190.2 45.3311 189.533 44.6748 188.913 43.9717C191.507 42.4144 193.715 40.5081 195.497 38.2529C197.351 35.9404 198.814 33.3415 199.908 30.4665C200.97 27.6956 201.674 24.7842 201.991 21.7633C202.153 20.1748 202.22 18.6748 202.153 17.279C202.101 15.6592 201.903 14.2633 201.569 13.0602L201.622 13.0446L201.554 12.8154C201.179 11.6123 200.668 10.6279 199.997 9.85189C199.59 9.38835 199.153 9.03939 198.674 8.77376C198.408 8.63314 198.142 8.50814 197.882 8.4196C197.632 8.34668 197.351 8.27897 197.049 8.24251C196.752 8.20605 196.47 8.19043 196.184 8.19043C195.939 8.20606 195.658 8.22689 195.34 8.27897C194.809 8.36751 194.262 8.52376 193.715 8.7373C192.689 9.15918 191.736 9.72689 190.835 10.43C190.028 11.1019 189.247 11.8779 188.507 12.8154C187.835 13.68 187.2 14.5811 186.637 15.5342C185.543 17.3519 184.679 19.3831 184.043 21.6227C183.726 22.6644 183.476 23.7425 183.283 24.8363C183.069 26.055 182.913 27.1279 182.84 28.1175C182.632 30.4508 182.7 32.654 183.054 34.7008L183.09 34.9144L183.21 35.5342C183.231 35.6019 183.247 35.6748 183.267 35.7633C183.267 35.779 183.283 35.7946 183.283 35.8154C183.319 35.9925 183.351 36.1488 183.408 36.3415L183.668 37.279C183.726 37.4925 183.814 37.7008 183.882 37.9144C183.934 38.0394 183.97 38.1436 184.007 38.2686C184.023 38.2686 184.023 38.2842 184.023 38.2842C184.163 38.6904 184.325 39.0811 184.502 39.4508L184.856 40.2113L185.257 40.9352C186.299 42.7842 187.658 44.4821 189.335 46.0186L190.168 46.7061C191.382 47.5706 192.585 48.154 193.783 48.4508C194.507 48.6279 195.252 48.7165 195.976 48.7165C196.611 48.7165 197.247 48.6644 197.861 48.5238C199.08 48.2581 200.335 47.7269 201.606 46.9508C202.22 46.5654 202.788 46.1748 203.262 45.7686C203.528 45.5602 203.741 45.3831 203.918 45.2217C204.095 45.0654 204.236 44.9248 204.34 44.8154C204.444 44.7113 204.533 44.6227 204.59 44.5498C204.658 44.4821 204.694 44.4092 204.71 44.3779C204.747 44.3206 204.747 44.305 204.747 44.2686C204.747 44.2529 204.747 44.2321 204.747 44.2321ZM200.424 13.0967C200.757 14.279 200.97 15.6904 201.038 17.3675C201.111 18.7113 201.059 20.1592 200.898 21.7113C200.601 24.6227 199.929 27.43 198.924 30.1488C197.861 32.9352 196.45 35.4456 194.684 37.6696C192.939 39.8727 190.819 41.7269 188.33 43.2269C187.944 42.7529 187.627 42.3102 187.361 41.9196C187.059 41.4821 186.741 40.9508 186.408 40.3519C186.09 39.7686 185.84 39.2061 185.632 38.6904C185.543 38.4977 185.47 38.2842 185.403 38.0915C185.366 38.0029 185.345 37.9144 185.314 37.8258C185.278 37.7373 185.257 37.6488 185.226 37.5602C185.153 37.3675 185.101 37.154 185.028 36.9613C184.71 35.8311 184.481 34.6331 184.377 33.3623C184.34 32.8675 184.304 32.3883 184.273 31.9144C184.273 31.7894 184.273 31.6488 184.252 31.5238V31.1904C184.236 30.6956 184.236 30.1852 184.252 29.6696C184.288 28.3675 184.392 27.1279 184.569 25.9977C184.622 25.7373 184.658 25.4508 184.731 25.1904L184.783 24.8883C184.819 24.6592 184.872 24.43 184.924 24.2008C184.96 24.1123 184.976 24.0081 184.997 23.8988C185.012 23.8831 185.012 23.8623 185.012 23.8623C185.049 23.6696 185.101 23.4925 185.153 23.3154L185.403 22.4196C185.773 21.1644 186.194 19.9977 186.637 18.9561C186.689 18.8675 186.726 18.7633 186.778 18.6592C186.778 18.6383 186.778 18.6383 186.793 18.6227C186.991 18.18 187.2 17.7217 187.429 17.279C187.627 16.8727 187.856 16.4508 188.064 16.0446H188.085C188.137 15.9404 188.189 15.8311 188.241 15.7269L188.262 15.7425L188.293 15.6748C189.002 14.4717 189.866 13.3623 190.892 12.3363C191.455 11.7738 191.986 11.2946 192.481 10.9456C193.059 10.5029 193.663 10.1488 194.278 9.88314C195.002 9.56543 195.674 9.37272 196.273 9.2998C196.325 9.2998 196.382 9.2998 196.434 9.2998C196.47 9.2998 196.502 9.2998 196.523 9.28418C196.554 9.28418 196.59 9.28418 196.627 9.28418C196.679 9.28418 196.731 9.28418 196.788 9.28418C196.819 9.28418 196.872 9.28418 196.908 9.28418C197.033 9.2998 197.174 9.2998 197.299 9.33626C197.595 9.37272 197.913 9.47689 198.231 9.65397L198.46 9.77897C198.497 9.81543 198.549 9.83105 198.585 9.86751C198.622 9.88314 198.637 9.9196 198.674 9.93522C198.762 9.99251 198.851 10.0811 198.924 10.1696C198.924 10.1696 198.924 10.1696 198.939 10.1696C198.976 10.2008 199.012 10.2373 199.043 10.2738C199.08 10.3102 199.116 10.3415 199.153 10.3988C199.168 10.4144 199.184 10.4508 199.205 10.4665C199.22 10.4873 199.241 10.5186 199.257 10.5394C199.309 10.5706 199.33 10.6071 199.361 10.6592C199.398 10.7165 199.434 10.7686 199.47 10.805C199.523 10.9092 199.59 10.9977 199.648 11.1019L199.679 11.1748C199.752 11.2946 199.819 11.4196 199.877 11.5602L199.908 11.6488C199.981 11.7738 200.033 11.8988 200.085 12.0394C200.174 12.305 200.283 12.5863 200.372 12.9196L200.424 13.0967Z" fill="#8664DB"/>
<path d="M204.972 47.5342C205.785 47.2009 206.509 46.7582 207.176 46.2113C207.301 46.1228 207.441 46.0186 207.566 45.9301C207.67 45.878 207.78 45.8415 207.884 45.8415C207.972 45.8415 208.077 45.878 208.15 45.9665C208.186 45.9821 208.202 46.0186 208.238 46.0498C208.238 46.0707 208.254 46.0707 208.275 46.0863L208.394 46.2478C208.446 46.3155 208.519 46.3884 208.592 46.4561C208.608 46.4926 208.624 46.5134 208.644 46.529C208.837 46.7217 209.03 46.8832 209.259 47.0238C209.488 47.1644 209.738 47.253 210.004 47.2686C210.551 47.3051 211.061 47.2165 211.54 47.0394C212.03 46.8988 212.509 46.7061 212.967 46.4769C213.426 46.2634 213.868 46.0186 214.311 45.753C214.519 45.6123 214.733 45.4717 214.946 45.3103C215.155 45.1696 215.353 45.0134 215.525 44.8155L215.545 44.8363L215.67 44.6957C215.722 44.6384 215.775 44.5863 215.811 44.5342L215.827 44.5186C215.827 44.5186 215.847 44.4978 215.847 44.4821C215.863 44.4821 215.863 44.4613 215.879 44.4457C215.9 44.4092 215.9 44.3571 215.9 44.3207C215.9 44.2686 215.879 44.2321 215.847 44.2009C215.811 44.1644 215.79 44.1436 215.759 44.128H215.738C215.686 44.1123 215.634 44.0915 215.582 44.1123C215.545 44.1123 215.509 44.1123 215.493 44.128C215.472 44.1436 215.457 44.1436 215.441 44.1644C215.441 44.1644 215.441 44.1644 215.42 44.1644H215.441C215.384 44.2009 215.332 44.2165 215.316 44.253C215.295 44.2686 215.28 44.2686 215.264 44.2894L215.124 44.4092L214.821 44.6384C214.629 44.7998 214.415 44.9561 214.222 45.0967C213.816 45.3988 213.389 45.6801 212.952 45.9092C212.509 46.1748 212.03 46.3363 211.54 46.404C211.025 46.4561 210.551 46.3884 210.124 46.1384C209.915 46.0186 209.754 45.8415 209.634 45.6123C209.525 45.4144 209.436 45.1853 209.368 44.9561C209.368 44.9561 209.368 44.9405 209.368 44.9248C209.295 44.6748 209.17 44.4457 209.014 44.2165C208.926 44.0915 208.821 44.0238 208.66 43.9873C208.519 43.9509 208.379 43.9717 208.238 44.003C207.988 44.1123 207.759 44.2321 207.551 44.378C207.337 44.5186 207.124 44.6748 206.931 44.8519C206.915 44.8676 206.894 44.8884 206.858 44.904C206.702 45.0446 206.525 45.1853 206.347 45.3311C206.295 45.3623 206.243 45.3988 206.191 45.4353C206.139 45.4717 206.082 45.503 206.03 45.5394C205.941 45.628 205.837 45.7009 205.733 45.7894C205.342 46.1228 204.92 46.3676 204.462 46.5134C204.441 46.5134 204.426 46.5134 204.405 46.529C204.374 46.529 204.337 46.5446 204.285 46.5446H204.196C204.176 46.5446 204.176 46.5446 204.16 46.5655L204.144 46.5446C204.108 46.5446 204.071 46.529 204.056 46.5134C204.035 46.4769 204.019 46.4405 204.035 46.404C204.035 46.3884 204.035 46.3676 204.056 46.3519L204.108 46.2842L204.212 46.1228C204.228 46.1071 204.249 46.0863 204.264 46.0707C204.316 45.9821 204.374 45.9092 204.441 45.8207C204.759 45.4353 205.113 45.0811 205.504 44.779C205.905 44.4821 206.332 44.2321 206.79 44.0394C207.249 43.8467 207.728 43.7217 208.217 43.6696C208.733 43.5967 209.228 43.5967 209.717 43.654C209.79 43.6696 209.879 43.6853 209.952 43.6853C210.004 43.7061 210.04 43.7061 210.092 43.7217C210.108 43.7217 210.124 43.7217 210.144 43.7217C210.196 43.7426 210.233 43.7426 210.269 43.7426L210.441 43.7946L210.639 43.8259C210.655 43.8259 210.676 43.8467 210.691 43.8467C210.728 43.8623 210.78 43.8623 210.847 43.8623C210.957 43.8623 211.045 43.8259 211.113 43.7582C211.186 43.6853 211.222 43.5967 211.238 43.4926C211.238 43.4405 211.222 43.404 211.202 43.3519C211.186 43.2998 211.15 43.2634 211.113 43.2269C211.077 43.1748 211.025 43.1384 210.972 43.0863C210.847 43.0186 210.743 42.9457 210.618 42.8728C210.374 42.7686 210.108 42.7009 209.842 42.6644C208.801 42.5238 207.78 42.5915 206.775 42.8571C205.764 43.1384 204.847 43.6176 204.056 44.2894C203.65 44.6071 203.275 44.9561 202.926 45.3467C202.749 45.5238 202.587 45.7321 202.446 45.9665C202.306 46.2113 202.254 46.4769 202.269 46.7738C202.29 46.9196 202.342 47.0603 202.41 47.1801C202.483 47.3051 202.556 47.4092 202.66 47.4978C202.889 47.6957 203.155 47.7998 203.436 47.7998C203.702 47.7998 203.967 47.7842 204.212 47.7269C204.478 47.6957 204.722 47.6228 204.972 47.5342Z" fill="#8664DB"/>
</svg>
